<?xml version="1.0" standalone="no"?>
<!DOCTYPE svg PUBLIC "-//W3C//DTD SVG 20010904//EN"
 "http://www.w3.org/TR/2001/REC-SVG-20010904/DTD/svg10.dtd">
<svg version="1.0" xmlns="http://www.w3.org/2000/svg"
 width="1280.000000pt" height="1252.000000pt" viewBox="0 0 1280.000000 1252.000000"
 preserveAspectRatio="xMidYMid meet">

<g transform="translate(0.000000,1252.000000) scale(0.100000,-0.100000)"
fill="#000000" stroke="none">
<path d="M2905 12404 c-27 -8 -77 -21 -110 -30 -33 -8 -100 -30 -150 -48 -49
-19 -111 -42 -136 -50 -25 -9 -85 -39 -135 -68 -49 -28 -119 -63 -156 -78 -76
-31 -190 -109 -215 -146 -27 -42 -233 -213 -272 -225 -40 -13 -151 -67 -151
-73 0 -3 16 0 35 5 19 6 77 14 128 19 50 5 106 12 122 16 24 4 43 -1 81 -25
28 -18 68 -34 90 -38 21 -3 59 -16 84 -28 25 -12 61 -25 80 -29 21 -4 79 -39
145 -87 61 -45 127 -88 148 -96 20 -8 37 -18 37 -22 0 -3 -29 -21 -64 -39
-110 -57 -324 -189 -420 -259 -217 -158 -484 -408 -592 -555 -117 -159 -213
-425 -289 -803 -19 -93 -42 -199 -50 -235 -38 -170 0 -206 170 -165 70 17 247
19 385 5 52 -6 139 -13 192 -16 l97 -7 -45 -56 c-24 -31 -57 -72 -73 -91 -50
-63 -226 -322 -298 -440 -333 -546 -578 -1153 -707 -1750 -56 -258 -98 -522
-112 -695 -2 -27 -6 -70 -8 -95 -3 -25 -7 -85 -10 -135 -6 -107 -27 -255 -37
-255 -4 0 -9 10 -13 23 -3 13 -14 33 -24 45 -19 22 -19 19 -17 -225 10 -809
216 -1641 595 -2408 343 -692 853 -1339 1445 -1833 546 -456 1128 -787 1800
-1024 826 -291 1791 -384 2675 -257 254 36 689 129 793 168 22 9 35 7 65 -9
31 -17 48 -19 113 -14 l77 7 118 -66 c66 -36 155 -80 199 -98 l80 -33 245 -1
c213 0 253 2 305 19 142 45 250 116 493 326 311 268 432 330 780 400 221 44
386 47 532 9 156 -42 230 -106 275 -241 24 -72 28 -100 29 -210 0 -71 3 -128
6 -128 19 2 148 180 185 255 69 139 92 331 60 485 -20 96 -47 144 -119 215
-64 63 -185 131 -274 155 -24 6 -42 15 -40 19 2 5 39 36 83 69 44 33 169 143
276 244 207 195 278 250 399 315 109 58 315 124 340 108 4 -3 19 -1 32 4 23 9
23 9 -7 15 -16 4 -50 11 -75 16 -25 5 -83 12 -130 14 -89 5 -85 4 65 -22 l50
-8 -60 -18 c-207 -60 -365 -154 -555 -331 -119 -111 -158 -145 -141 -122 18
23 7 34 -16 16 -10 -7 1 6 25 28 23 23 42 44 42 47 0 10 -36 -8 -90 -45 -53
-37 -75 -44 -51 -16 6 8 47 36 91 63 44 26 80 52 80 56 0 13 -23 9 -44 -7 -30
-23 -38 -18 -20 10 9 14 33 33 53 42 30 13 33 16 18 22 -26 10 -6 24 56 41 26
7 50 17 53 21 6 11 2 11 -53 0 -63 -12 -52 3 20 28 89 32 110 41 104 47 -5 5
-97 -15 -142 -32 -13 -5 -17 -4 -10 3 13 13 135 58 198 74 86 21 64 30 -62 27
-79 -3 -121 0 -121 7 0 5 24 21 53 35 l52 25 -40 5 c-69 10 122 23 243 16 64
-3 95 -2 77 3 -16 5 -105 9 -196 10 l-167 1 -5 26 c-2 14 1 38 8 51 8 14 11
33 7 42 -6 15 -7 15 -10 0 -2 -9 -14 -19 -27 -21 -19 -4 -30 4 -54 38 -32 44
-38 64 -21 64 6 0 10 7 10 15 0 8 -4 15 -10 15 -5 0 -10 -7 -10 -15 0 -14 -37
-35 -59 -35 -5 0 -20 11 -35 25 -15 14 -32 25 -39 25 -7 0 -4 -5 6 -11 24 -14
21 -48 -5 -58 -26 -10 -69 1 -107 26 -14 10 -30 16 -36 15 -5 -2 -24 -1 -42 3
-23 4 -33 11 -33 24 0 11 -7 22 -16 25 -24 9 -54 7 -54 -4 0 -5 9 -10 20 -10
29 0 41 -29 23 -57 -19 -29 -93 -33 -121 -6 -10 10 -34 19 -55 19 -47 2 -58
11 -33 30 26 18 41 18 61 -3 16 -15 18 -14 39 10 14 16 37 29 62 33 37 6 43
12 136 152 847 1284 1142 2750 862 4282 -52 284 -137 584 -258 912 -314 851
-848 1635 -1534 2254 -129 117 -389 326 -493 397 -213 146 -285 194 -299 200
-8 4 -26 15 -40 24 -13 10 -21 13 -17 6 4 -6 2 -15 -5 -19 -7 -4 -10 -4 -7 0
11 12 -38 59 -53 50 -7 -4 -10 -4 -6 1 10 10 -21 34 -44 35 -10 0 -18 5 -18
11 0 5 -4 7 -10 4 -5 -3 -10 -2 -10 4 0 6 -8 8 -17 4 -10 -3 -15 -3 -11 2 8 8
-19 34 -36 35 -6 0 -1 -7 10 -15 10 -8 15 -14 9 -15 -14 0 -28 12 -41 34 -6
11 -17 21 -25 24 -9 2 -7 -2 4 -11 18 -15 18 -15 -2 -22 -12 -3 -18 -11 -15
-17 4 -7 9 -6 14 2 6 10 14 7 31 -10 21 -20 22 -22 4 -16 -16 6 -17 5 -8 -5
10 -10 15 -9 28 1 12 10 15 10 15 -4 0 -9 6 -16 13 -16 17 -1 63 -37 55 -45
-12 -12 -50 6 -44 21 4 11 -1 13 -19 10 -14 -3 -34 3 -49 15 -13 10 -31 19
-40 19 -8 0 -31 9 -51 20 -20 11 -40 20 -45 20 -5 0 -58 24 -117 53 -59 29
-171 79 -248 110 -77 32 -148 63 -157 68 -10 5 -23 9 -29 9 -6 0 -27 7 -47 16
-68 30 -130 52 -212 75 -19 5 -51 16 -70 24 -111 44 -517 145 -705 176 -403
65 -621 83 -995 83 -392 0 -666 -22 -993 -80 -49 -8 -91 -13 -95 -10 -11 12
-21 105 -21 214 l-1 112 28 11 c15 6 60 9 101 7 80 -3 88 2 77 47 -12 46 -54
83 -102 91 -57 8 -178 -10 -263 -39 -63 -22 -72 -23 -152 -12 -46 7 -114 16
-150 19 -63 7 -66 8 -78 41 -26 72 -93 157 -171 214 -114 85 -269 159 -356
170 -41 5 -103 23 -145 41 -52 23 -99 36 -158 41 -60 7 -107 19 -168 45 -48
21 -112 40 -151 44 -37 5 -88 14 -112 19 -59 14 -116 14 -215 -1 -71 -10 -90
-9 -142 5 -71 20 -111 21 -178 1z m1938 -675 c48 -7 87 -16 87 -21 0 -4 -3 -8
-8 -8 -4 0 -49 -33 -100 -73 -67 -53 -127 -89 -210 -126 -211 -96 -465 -168
-497 -141 -24 20 -18 26 38 39 123 27 287 130 487 304 46 41 59 48 85 43 16
-3 69 -11 118 -17z m252 -131 c-3 -7 -20 -83 -38 -168 l-33 -154 -45 -12 c-24
-6 -71 -19 -104 -29 -33 -9 -82 -22 -110 -30 -27 -7 -78 -22 -112 -33 -37 -12
-60 -15 -56 -8 32 55 130 170 212 249 121 116 305 235 286 185z m58 -180 c4
-35 9 -73 13 -85 5 -18 1 -23 -27 -31 -43 -11 -45 -5 -25 92 9 41 16 78 16 81
0 3 4 5 9 5 4 0 11 -28 14 -62z m-2087 -56 c-2 -4 -45 -21 -95 -37 -85 -27
-93 -28 -108 -12 -20 20 -17 22 82 41 81 16 128 19 121 8z m1498 -4 c-4 -7
-30 -47 -59 -88 -28 -41 -68 -103 -89 -138 -21 -35 -41 -61 -44 -58 -3 3 -10
2 -16 -3 -6 -4 -36 -18 -67 -29 l-56 -21 -6 51 c-4 31 -16 63 -31 83 -14 18
-28 43 -31 56 -6 23 -1 26 132 67 76 24 163 54 193 67 64 27 84 30 74 13z
m2212 -93 c579 -47 1025 -151 1574 -368 292 -115 701 -330 995 -522 584 -382
1138 -936 1530 -1530 162 -246 247 -395 369 -646 169 -349 209 -454 352 -911
118 -381 202 -980 204 -1453 1 -137 2 -147 15 -120 l14 30 -5 -30 c-3 -24 -3
-26 5 -10 5 11 10 32 10 46 1 14 7 33 14 42 14 20 14 25 19 -193 3 -164 -11
-437 -28 -540 -5 -29 -23 -157 -30 -215 -29 -237 -142 -660 -272 -1020 -67
-187 -288 -661 -330 -709 -10 -11 -11 -16 -3 -11 9 5 8 0 -4 -18 -25 -39 -119
-81 -265 -118 -89 -22 -134 -25 -127 -7 13 35 40 134 62 230 46 199 165 392
273 444 71 34 137 54 176 54 30 0 36 3 28 13 -17 20 -92 55 -147 68 -27 6 -55
13 -62 15 -7 2 4 41 32 114 159 401 266 851 327 1375 21 175 17 860 -5 1050
-46 393 -138 813 -248 1131 -355 1031 -1014 1919 -1899 2558 -340 246 -694
439 -1120 611 -660 266 -1464 398 -2165 354 -121 -8 -242 -13 -270 -13 -67 2
-153 36 -206 83 -58 51 -98 71 -194 96 -128 35 -115 48 72 73 161 23 404 49
503 55 170 10 637 6 806 -8z m-4036 -25 c0 -6 -10 -15 -22 -20 -13 -5 -63 -33
-113 -64 -90 -56 -115 -59 -115 -17 0 16 89 72 155 98 38 15 95 16 95 3z
m2490 -66 c0 -13 -42 -74 -50 -74 -10 0 -40 40 -40 52 0 4 15 12 33 17 40 11
57 13 57 5z m-1803 -40 c-10 -10 -161 -74 -172 -73 -14 1 147 78 164 79 8 0
12 -3 8 -6z m1251 -116 c-121 -184 -152 -244 -163 -315 -4 -24 -10 -43 -15
-43 -5 0 -39 23 -77 52 l-69 51 51 96 51 96 115 42 c63 23 116 42 118 42 2 1
-3 -9 -11 -21z m-1795 -123 c2 -9 -104 -66 -111 -60 -2 2 3 13 10 25 21 37 96
62 101 35z m1391 -39 c-7 -29 -21 -33 -49 -12 -19 13 -18 15 15 29 19 8 36 13
38 12 2 -2 0 -14 -4 -29z m-2174 -25 c0 -20 -165 -129 -177 -117 -2 2 28 31
68 65 66 55 109 76 109 52z m607 -8 c7 -19 -15 -39 -99 -89 -63 -36 -88 -42
-88 -20 0 17 16 31 99 83 76 48 79 49 88 26z m114 -23 c-21 -18 -61 -28 -61
-15 0 8 54 34 70 34 10 0 8 -6 -9 -19z m1076 -175 c47 -14 113 -69 113 -94 0
-15 -69 -70 -96 -77 -53 -13 -143 14 -191 59 -42 38 -22 89 44 112 49 18 69
18 130 0z m322 -135 c56 -28 101 -86 101 -130 0 -71 -8 -72 -150 -21 -119 42
-151 91 -95 146 30 31 90 33 144 5z m-579 -18 c99 -20 177 -61 186 -97 18 -71
-30 -145 -93 -145 -86 0 -338 89 -355 125 -21 46 34 105 117 126 44 10 52 10
145 -9z m-1470 -13 c0 -23 -105 -139 -127 -139 -28 0 -11 39 45 98 60 65 82
76 82 41z m1796 -54 c-11 -8 -29 -15 -40 -14 -15 0 -11 4 14 14 45 17 49 17
26 0z m-2346 -3 c0 -14 -105 -122 -118 -122 -19 0 -1 28 54 83 47 45 64 56 64
39z m2557 -148 c68 -34 123 -105 123 -159 0 -38 -37 -112 -66 -131 -17 -12
-26 -11 -65 10 -24 13 -86 45 -136 71 -94 48 -143 91 -143 126 0 27 36 96 57
109 11 6 50 9 95 7 59 -3 89 -10 135 -33z m-704 -40 c161 -67 196 -132 119
-214 -51 -53 -82 -53 -250 5 -162 55 -196 74 -200 108 -4 33 49 93 109 125 57
30 107 25 222 -24z m351 -25 c-24 -23 -98 -37 -108 -20 -5 7 6 11 31 11 22 0
48 7 59 15 29 22 41 18 18 -6z m-589 -215 c129 -42 206 -76 223 -97 49 -59
-37 -177 -127 -177 -45 0 -376 112 -402 136 -10 9 -19 24 -19 33 0 26 72 112
110 133 43 24 71 20 215 -28z m745 -13 c81 -34 166 -93 175 -122 17 -53 -1
-123 -43 -171 -23 -28 -46 -22 -102 26 -28 24 -72 52 -98 61 -82 31 -166 75
-184 96 -34 41 -14 112 37 136 43 19 133 9 215 -26z m-330 -11 c-6 -12 -22
-25 -36 -30 -38 -15 -53 -11 -19 4 17 7 36 20 44 29 19 23 24 21 11 -3z
m-1175 -80 c-17 -32 -75 -67 -121 -72 -23 -2 -29 1 -29 17 0 15 18 27 75 51
94 40 94 40 75 4z m-237 -112 c-7 -21 -98 -78 -125 -78 -34 0 -26 14 32 54 50
35 100 48 93 24z m1587 -47 c55 -27 112 -61 126 -77 29 -32 69 -102 69 -121 0
-27 -34 -80 -64 -101 -56 -38 -90 -30 -212 53 -35 25 -83 49 -107 55 -23 6
-57 17 -76 26 -33 15 -33 16 -29 67 6 75 26 108 78 135 58 29 86 25 215 -37z
m-809 18 c125 -39 171 -72 214 -157 28 -56 20 -89 -32 -142 -29 -28 -49 -40
-69 -40 -32 0 -117 40 -205 96 -31 20 -84 44 -117 53 -74 20 -85 35 -67 90 24
73 90 118 176 120 18 1 63 -9 100 -20z m453 -55 c-19 -24 -65 -44 -96 -43 -24
1 -23 3 14 14 24 8 53 21 65 29 28 20 34 20 17 0z m90 -230 c134 -50 241 -134
241 -189 0 -36 -34 -99 -67 -125 -24 -19 -37 -21 -84 -17 -65 6 -113 28 -231
110 -111 77 -122 98 -84 174 42 87 90 97 225 47z m-704 -13 c78 -36 134 -86
163 -145 20 -39 22 -51 13 -84 -16 -58 -51 -86 -100 -79 -48 6 -279 129 -334
177 -45 40 -45 59 1 105 72 72 144 79 257 26z m-545 -5 c0 -2 -30 -70 -66
-152 -91 -206 -122 -294 -145 -403 -18 -85 -26 -102 -84 -186 -160 -229 -401
-683 -508 -955 -191 -485 -298 -925 -353 -1445 -22 -201 -25 -764 -5 -965 45
-477 131 -864 298 -1335 63 -179 120 -310 225 -519 126 -253 202 -383 349
-601 371 -551 850 -1033 1384 -1394 636 -430 1324 -706 2068 -831 284 -47 439
-61 757 -67 600 -11 1048 54 1682 244 12 4 18 -4 23 -29 10 -44 38 -99 64
-122 29 -26 27 -33 -15 -46 -45 -15 -70 -55 -78 -128 l-6 -57 -213 -53 c-333
-82 -645 -130 -1007 -153 -196 -13 -697 -6 -850 11 -392 44 -653 90 -890 155
-52 14 -108 30 -125 34 -16 5 -68 21 -115 36 -47 15 -105 33 -130 41 -25 8
-54 18 -65 23 -11 5 -47 18 -80 31 -33 12 -69 25 -80 30 -11 5 -56 23 -100 40
-101 41 -289 132 -293 142 -2 4 -11 8 -20 8 -9 0 -39 13 -67 29 -27 16 -83 47
-123 68 -40 21 -68 39 -62 41 5 2 10 8 10 13 0 6 -8 5 -20 -1 -14 -7 -20 -7
-20 0 0 5 -6 10 -14 10 -8 0 -18 5 -22 12 -5 7 -2 9 7 4 8 -4 4 1 -8 10 -13 9
-23 22 -23 29 0 6 -10 16 -21 21 -18 8 -15 10 20 10 23 0 36 -3 29 -7 -7 -4
-17 -5 -23 -2 -5 4 -7 2 -2 -2 4 -5 24 -10 45 -12 l37 -3 -24 20 c-22 19 -40
25 -70 21 -7 -2 -10 2 -7 8 3 5 -8 20 -26 32 -29 20 -31 21 -19 4 8 -11 0 -5
-17 13 -20 21 -38 32 -48 28 -8 -3 -12 -2 -9 4 6 9 -34 36 -47 32 -5 -1 -8 2
-8 7 0 9 -124 90 -144 94 -6 1 -14 6 -17 10 -3 5 -18 16 -32 25 -269 177 -804
669 -1053 968 -599 717 -1021 1590 -1188 2459 -70 367 -100 688 -100 1080 0
451 36 789 130 1225 150 693 512 1472 963 2070 154 204 231 291 276 311 37 16
75 24 75 15z m907 -81 c-22 -20 -38 -25 -75 -24 l-47 1 44 9 c24 5 53 15 65
23 34 24 43 17 13 -9z m148 -179 c104 -47 195 -139 195 -197 0 -31 -47 -77
-99 -99 -38 -15 -88 -5 -244 49 -130 46 -137 52 -137 119 0 85 43 135 135 156
34 7 98 -5 150 -28z m-639 -31 c48 -24 95 -52 106 -62 27 -24 58 -87 58 -116
0 -27 -42 -71 -83 -86 -33 -13 -43 -8 -128 54 -36 26 -79 48 -111 55 -84 20
-108 36 -108 71 0 16 7 44 16 62 42 84 117 91 250 22z m304 -50 c0 -2 -13 -11
-29 -19 -20 -11 -37 -12 -57 -6 l-29 8 30 2 c17 1 39 5 50 10 24 10 35 12 35
5z m88 -211 c51 -20 112 -50 135 -68 77 -59 71 -127 -16 -167 -67 -30 -99 -25
-201 33 -110 63 -126 75 -126 101 0 45 71 133 110 137 3 0 47 -16 98 -36z
m-541 -9 c54 -16 103 -61 103 -94 0 -10 -17 -49 -37 -88 -21 -38 -51 -95 -68
-127 -38 -72 -95 -136 -123 -136 -30 0 -69 46 -81 96 -16 62 -13 192 4 251 19
64 70 113 119 113 18 0 55 -7 83 -15z m2043 11 c0 -2 -8 -10 -17 -17 -16 -13
-17 -12 -4 4 13 16 21 21 21 13z m-1769 -56 c-25 -22 -57 -25 -81 -10 -11 7
-4 10 27 10 23 0 45 5 48 10 3 6 12 10 18 10 7 -1 1 -10 -12 -20z m-46 -132
c-22 -11 -58 -35 -80 -51 -31 -24 -36 -26 -20 -8 32 38 96 81 119 81 16 -1 11
-6 -19 -22z m184 -70 c55 -28 67 -38 69 -61 4 -35 -43 -81 -142 -138 -165 -95
-286 -130 -326 -94 -28 25 -25 59 8 87 15 12 56 58 90 100 93 112 150 152 206
143 15 -3 58 -20 95 -37z m7944 -759 c23 -28 22 -74 -3 -99 -20 -20 -33 -20
-4162 -20 -2691 0 -4139 3 -4132 10 5 5 95 38 199 72 l190 63 3945 -2 3945 -3
18 -21z m-8815 -40 c31 -34 59 -65 60 -70 2 -5 -97 -9 -221 -9 -252 0 -252 0
-252 72 0 63 14 68 197 68 l159 0 57 -61z m5575 -393 c83 -35 150 -143 169
-272 29 -203 -73 -417 -219 -460 -121 -35 -224 21 -268 145 -25 71 -22 80 24
74 52 -7 83 1 120 33 47 39 81 105 92 178 9 56 8 70 -7 95 -23 39 -57 56 -114
56 -166 0 -356 -289 -470 -719 -147 -550 -175 -1119 -68 -1344 48 -102 182
-96 292 14 99 99 188 222 265 365 40 75 54 114 66 185 26 147 53 233 110 349
62 126 133 212 201 245 36 18 57 21 106 18 58 -4 64 -7 99 -47 46 -52 59 -105
59 -245 0 -282 -97 -573 -251 -756 -75 -90 -203 -105 -279 -34 -18 17 -33 51
-50 113 l-24 90 -42 -74 c-101 -177 -246 -345 -339 -392 -217 -111 -403 -46
-485 169 -84 219 -62 663 54 1075 60 212 181 515 265 661 141 247 312 423 461
475 56 20 190 22 233 3z m-4955 -11 c86 -20 169 -64 235 -125 71 -65 110 -127
149 -236 28 -79 32 -104 36 -224 7 -221 -37 -392 -139 -545 -108 -161 -221
-214 -364 -170 -27 8 -50 13 -51 12 0 -1 -18 -76 -39 -167 -123 -537 -246
-817 -407 -930 -47 -33 -54 -35 -131 -35 -135 0 -200 50 -234 177 -15 58 -16
78 -6 158 14 107 43 166 100 202 66 40 160 22 200 -39 20 -30 21 -114 2 -170
-12 -38 -12 -38 -44 -17 -33 22 -59 5 -81 -51 -14 -39 -15 -52 -5 -86 16 -51
45 -66 92 -46 44 18 84 76 113 163 61 179 125 450 176 739 39 220 163 654 230
801 63 139 154 241 235 264 53 15 51 23 -26 99 -72 71 -143 102 -245 109 -316
19 -551 -284 -619 -801 -49 -377 20 -727 144 -727 36 0 59 29 68 84 10 66 -35
126 -97 126 -28 0 -27 42 3 100 30 60 99 97 150 81 43 -14 85 -58 97 -101 5
-18 8 -70 7 -114 -4 -97 -34 -171 -96 -239 -47 -50 -91 -67 -178 -67 -190 0
-315 189 -330 500 -17 348 114 753 330 1019 88 109 246 216 372 252 77 23 265
25 353 4z m2222 -338 c0 -7 -7 -40 -16 -72 -8 -33 -35 -163 -60 -290 -25 -126
-86 -435 -135 -685 -50 -250 -91 -476 -92 -502 -2 -58 12 -76 48 -60 38 18 61
80 99 272 32 159 118 572 131 628 5 21 10 22 100 22 107 0 103 5 79 -85 -38
-147 -154 -731 -154 -780 0 -45 3 -55 20 -60 48 -15 85 52 116 215 22 118 160
789 198 965 8 39 29 147 46 240 17 94 33 178 36 188 5 15 18 17 100 17 l95 0
-6 -47 c-4 -27 -10 -57 -15 -68 -14 -30 -281 -1402 -283 -1451 -1 -24 4 -49
10 -55 21 -21 61 5 83 53 17 37 102 446 279 1333 l46 230 89 3 c49 2 93 -1 98
-6 4 -4 1 -32 -7 -62 -8 -30 -56 -260 -105 -510 -49 -250 -112 -567 -140 -704
-53 -266 -59 -316 -35 -336 46 -38 97 51 115 202 31 268 114 488 234 625 62
69 120 97 192 91 66 -6 100 -28 134 -89 51 -93 36 -385 -32 -599 -68 -212
-182 -388 -276 -424 -51 -19 -83 -20 -141 -2 -40 11 -48 19 -78 75 -18 35 -33
72 -33 82 0 14 -15 -1 -43 -43 -61 -89 -115 -128 -177 -128 -53 0 -61 8 -96
92 l-19 46 -49 -54 c-59 -67 -91 -84 -151 -84 -45 0 -46 1 -67 48 -12 26 -24
60 -27 76 l-6 29 -39 -51 c-56 -73 -91 -95 -156 -100 l-56 -4 -27 59 c-15 32
-27 65 -27 72 0 8 -25 -13 -55 -46 -63 -69 -94 -86 -156 -81 -37 3 -46 8 -63
37 -34 59 -37 127 -11 274 32 186 76 416 161 839 41 202 83 420 94 485 12 65
25 135 31 156 l10 37 94 0 c71 0 95 -3 95 -13z m3662 7 c3 -3 -1 -31 -8 -62
-34 -135 -294 -1451 -294 -1489 0 -23 3 -48 6 -57 14 -37 64 -6 98 61 8 17 20
73 26 125 33 297 110 506 238 640 65 69 119 93 193 86 63 -6 97 -31 129 -94
23 -45 25 -58 25 -189 -1 -164 -20 -283 -71 -434 -53 -161 -140 -308 -219
-373 -49 -40 -150 -47 -214 -13 -30 15 -81 113 -81 156 -1 20 -5 16 -24 -21
-29 -55 -118 -148 -150 -156 -12 -3 -42 -4 -66 -2 -39 3 -45 7 -64 43 -35 68
-28 195 27 465 25 124 49 248 52 275 9 65 203 1024 211 1036 6 10 177 13 186
3z m2362 -24 c-1 -14 -38 -205 -83 -425 -119 -586 -211 -1067 -211 -1108 0
-102 59 -87 107 28 16 40 38 56 55 39 8 -8 -18 -90 -51 -159 -31 -64 -107
-150 -148 -166 -13 -5 -44 -9 -68 -9 -44 0 -45 0 -70 55 -14 31 -25 68 -25 83
-1 25 -1 26 -12 7 -17 -31 -100 -115 -130 -131 -15 -8 -45 -14 -67 -14 -46 0
-76 30 -87 86 -8 42 -26 43 -53 5 -37 -51 -108 -91 -163 -91 l-49 0 -24 53
c-14 28 -25 66 -25 82 -1 27 -2 28 -13 11 -25 -39 -102 -118 -128 -132 -16 -8
-49 -14 -74 -14 -46 0 -46 0 -70 53 -14 28 -25 62 -25 75 0 20 -8 14 -57 -38
-63 -69 -93 -87 -143 -90 -57 -3 -60 -2 -80 43 -37 81 -22 228 60 564 52 218
64 303 43 310 -7 3 -22 -10 -33 -29 -40 -65 -84 -228 -150 -558 l-66 -335 -88
-8 c-49 -5 -92 -5 -96 0 -5 4 4 66 20 137 32 140 110 535 162 821 l33 180 98
3 c110 3 105 8 82 -82 -18 -67 -12 -86 9 -34 8 19 33 53 55 76 34 35 47 42 80
42 53 0 69 -8 86 -41 31 -59 16 -192 -60 -514 -62 -263 -74 -338 -55 -360 19
-23 62 5 88 57 18 36 153 653 178 816 l7 42 98 0 99 0 -6 -27 c-3 -16 -12 -48
-19 -73 -16 -55 -155 -749 -155 -777 0 -10 6 -28 14 -38 12 -16 18 -17 39 -8
36 17 62 73 81 176 40 212 114 417 194 534 53 78 147 166 206 193 86 39 227
35 243 -7 3 -8 -1 -38 -10 -67 -24 -78 -148 -720 -149 -772 -1 -52 11 -69 41
-59 41 13 71 80 101 223 44 213 143 706 210 1047 33 171 65 320 70 333 9 22
14 23 97 20 87 -3 88 -3 87 -28z m-5804 -89 c42 -29 59 -77 55 -156 -4 -113
-51 -185 -121 -185 -72 0 -133 101 -119 198 14 105 37 146 89 161 37 11 62 6
96 -18z m4818 -14 c34 -34 37 -43 40 -107 6 -97 -3 -130 -45 -179 -34 -41 -39
-43 -80 -38 -51 5 -68 18 -96 71 -26 52 -29 165 -5 211 48 89 123 106 186 42z
m-6565 3 c36 -42 50 -94 44 -160 -9 -98 -59 -170 -119 -170 -75 0 -118 56
-126 161 -9 127 38 199 128 199 41 0 52 -4 73 -30z m-68 -612 c-4 -24 -11 -50
-15 -58 -4 -8 -40 -176 -80 -372 -74 -374 -82 -450 -47 -456 26 -5 62 31 85
86 20 46 172 770 172 818 0 24 1 24 101 24 l101 0 -7 -42 c-4 -24 -11 -51 -16
-60 -5 -9 -9 -25 -9 -35 0 -10 13 4 29 32 41 71 72 96 124 102 36 4 48 1 73
-20 29 -25 29 -27 27 -122 -2 -113 -19 -207 -79 -450 -48 -190 -65 -317 -45
-329 21 -13 69 26 89 73 11 25 27 95 36 156 29 191 62 311 123 433 93 190 184
269 302 260 62 -5 103 -33 132 -91 46 -90 33 -366 -27 -575 -63 -216 -196
-421 -292 -450 -53 -16 -79 -15 -136 5 -44 16 -51 23 -77 78 -15 33 -30 69
-34 79 -5 16 -9 14 -26 -19 -25 -47 -95 -122 -130 -141 -30 -15 -99 -21 -117
-10 -7 4 -19 21 -28 38 -31 59 -12 261 47 499 84 343 92 438 29 350 -39 -55
-88 -235 -154 -565 -36 -181 -67 -330 -68 -332 -4 -3 -105 -7 -146 -5 l-33 1
7 63 7 62 -50 -52 c-57 -59 -103 -77 -158 -62 -24 7 -40 20 -52 42 -22 42 -29
167 -14 253 15 88 136 665 159 761 l17 73 93 0 94 0 -7 -42z m8466 -395 c-12
-20 -14 -14 -5 12 4 9 9 14 11 11 3 -2 0 -13 -6 -23z m-909 -1400 c24 -22 24
-77 -2 -103 -20 -20 -33 -20 -4601 -20 -3071 0 -4587 3 -4599 10 -27 15 -36
74 -16 105 l16 25 4592 0 c4258 0 4593 -1 4610 -17z m-717 -185 c149 -42 245
-115 298 -226 25 -53 30 -79 33 -155 2 -51 1 -86 -2 -79 -9 18 -22 15 -29 -8
-9 -29 -28 -25 -21 4 3 14 2 28 -4 31 -5 3 -10 36 -10 73 0 49 -5 76 -20 100
-29 47 -42 41 -35 -15 10 -77 -38 -238 -82 -275 -13 -10 -15 -7 -13 22 5 63 0
130 -9 130 -4 0 -18 -29 -30 -65 -31 -95 -60 -133 -158 -205 -49 -35 -89 -65
-91 -65 -1 -1 0 -8 3 -16 4 -10 19 -13 55 -11 38 3 51 0 56 -11 15 -40 -46
-86 -93 -70 -24 9 -28 15 -25 42 2 24 -2 31 -15 30 -27 -1 -108 -53 -108 -69
0 -7 -13 -17 -29 -21 -17 -5 -34 -15 -38 -24 -5 -8 -15 -15 -23 -15 -21 0 -28
-19 -13 -37 12 -15 10 -16 -22 -10 -28 6 -44 1 -95 -29 -33 -20 -73 -49 -88
-63 -16 -14 -25 -19 -22 -11 3 8 53 53 110 98 314 255 488 521 488 752 0 91
-17 134 -73 189 l-41 40 38 -6 c21 -3 70 -14 108 -25z m-412 -29 c-18 -12 -33
-27 -33 -35 0 -15 -60 -87 -67 -80 -16 15 88 136 116 136 9 0 2 -9 -16 -21z
m-5686 -161 c-3 -13 -24 -87 -46 -164 -50 -179 -91 -362 -99 -438 l-5 -59 41
6 c24 4 43 3 47 -3 9 -15 -62 -43 -110 -44 l-40 -1 -3 44 c-3 46 12 124 89
455 27 116 55 213 62 218 6 4 25 8 41 8 24 0 28 -3 23 -22z m1770 0 c-2 -13
-26 -95 -51 -182 -51 -173 -96 -382 -96 -441 l0 -37 46 7 c64 9 55 -13 -16
-38 -79 -27 -95 -22 -95 33 0 25 4 65 8 90 l7 45 -22 -30 c-41 -55 -112 -127
-140 -141 -29 -15 -76 -18 -94 -6 -44 29 -46 129 -4 217 56 118 162 186 265
171 39 -6 45 -5 45 11 0 33 62 278 76 301 10 15 24 22 45 22 27 0 31 -3 26
-22z m4283 -8 c0 -5 -2 -10 -4 -10 -3 0 -8 5 -11 10 -3 6 -1 10 4 10 6 0 11
-4 11 -10z m-6754 -95 c97 -40 132 -117 113 -245 -21 -138 -116 -277 -226
-331 -43 -22 -62 -24 -180 -24 -73 -1 -133 2 -133 6 0 3 9 43 21 89 36 145 96
445 92 458 -3 7 -21 12 -44 12 -51 0 -54 26 -4 36 147 27 294 27 361 -1z
m4544 1 c0 -33 -25 -40 -127 -37 l-82 2 -7 -28 c-4 -15 -30 -140 -58 -277
l-51 -250 -30 -8 c-52 -14 -54 -35 21 322 20 96 39 192 41 213 l5 37 -48 0
c-71 0 -96 -17 -114 -73 -11 -34 -20 -47 -34 -47 -14 0 -17 5 -13 23 3 12 9
38 12 57 14 75 11 74 253 80 119 3 220 7 225 8 4 1 7 -9 7 -22z m1717 2 c-3
-13 -23 -82 -45 -153 -22 -72 -48 -165 -58 -208 -15 -63 -22 -77 -37 -77 -23
0 -21 20 19 264 33 196 33 196 85 196 38 0 41 -2 36 -22z m-5389 -36 c5 -33
-24 -72 -53 -72 -26 0 -45 26 -37 50 17 52 84 68 90 22z m526 22 c41 -16 -2
-99 -47 -92 -29 4 -36 52 -11 79 18 20 32 23 58 13z m2426 -9 c10 -12 10 -21
0 -45 -16 -38 -57 -51 -77 -25 -17 24 -17 28 8 59 23 29 50 34 69 11z m836
-10 c9 -37 -20 -77 -54 -73 -19 2 -28 10 -30 26 -9 58 70 102 84 47z m2642
-137 c19 -19 14 -37 -13 -50 -19 -9 -28 -9 -37 0 -7 7 -23 12 -37 12 -23 0
-24 -1 -7 -13 15 -11 17 -17 7 -35 -9 -17 -21 -22 -50 -22 -22 0 -44 6 -51 15
-18 21 -3 55 25 55 13 0 27 5 30 10 4 6 15 8 26 5 11 -4 27 2 41 14 25 24 48
27 66 9z m97 -4 c8 -4 22 -19 30 -35 13 -24 13 -30 -1 -43 -21 -22 -28 -20
-62 14 -46 46 -25 86 33 64z m-7927 -46 c28 -28 -5 -88 -48 -88 -28 0 -44 34
-29 63 20 38 53 49 77 25z m967 -8 c8 -7 15 -27 15 -45 0 -68 -70 -115 -197
-131 l-53 -7 0 -39 c0 -103 75 -138 163 -76 21 15 32 17 40 9 27 -27 -81 -91
-155 -91 -58 0 -102 34 -119 90 -26 87 58 246 156 292 45 21 123 20 150 -2z
m373 11 c10 -6 8 -25 -11 -92 -29 -97 -50 -226 -41 -241 4 -6 24 -7 51 -3 67
10 51 -15 -24 -39 -82 -26 -93 -20 -93 48 0 83 47 309 67 324 19 14 33 15 51
3z m366 -12 c32 -25 34 -61 5 -90 -30 -30 -55 -21 -51 19 3 26 -1 34 -22 43
-20 10 -31 8 -62 -8 -85 -44 -131 -208 -75 -267 32 -34 77 -34 125 -1 20 14
42 25 47 25 21 0 3 -34 -33 -63 -42 -34 -122 -47 -170 -28 -122 47 -64 291 86
366 61 31 114 32 150 4z m179 -4 c-1 -11 -14 -62 -28 -114 -14 -52 -26 -120
-28 -150 l-2 -56 43 2 c56 2 51 -16 -9 -39 -68 -26 -97 -23 -105 9 -10 40 53
344 74 361 25 19 57 11 55 -13z m360 -7 l21 -28 -29 -131 c-33 -150 -30 -165
30 -162 50 3 41 -18 -15 -36 -61 -19 -93 -2 -100 54 l-5 40 -23 -32 c-23 -33
-94 -73 -129 -73 -31 0 -73 38 -73 66 0 30 21 73 46 96 24 21 134 58 173 58
24 0 31 6 40 31 17 48 13 76 -11 93 -32 23 -65 20 -94 -10 -19 -18 -24 -31
-20 -49 7 -26 -17 -41 -47 -29 -46 17 -15 83 57 119 71 36 150 33 179 -7z
m1010 21 c29 -16 37 -28 37 -61 0 -61 -75 -108 -197 -124 l-53 -7 0 -39 c0
-103 75 -138 163 -76 21 15 32 17 40 9 27 -27 -81 -91 -155 -91 -89 0 -140 77
-118 177 33 148 187 262 283 212z m384 -5 c5 -14 -16 -121 -34 -174 -3 -8 19
21 48 65 30 44 69 90 88 102 42 29 87 30 101 4 13 -25 13 -86 0 -130 -15 -53
-6 -48 30 16 48 86 101 133 150 133 67 0 75 -45 35 -200 -14 -52 -25 -108 -25
-124 0 -28 1 -28 45 -22 30 5 45 4 45 -4 0 -14 -56 -37 -109 -46 -38 -6 -40
-5 -47 22 -5 18 1 63 16 124 32 135 35 169 17 176 -42 16 -124 -85 -177 -220
-30 -74 -41 -91 -64 -99 -15 -5 -30 -7 -33 -4 -3 3 11 72 32 152 29 115 34
149 25 160 -10 13 -16 13 -40 0 -53 -27 -119 -131 -160 -249 -13 -38 -23 -52
-44 -59 -15 -5 -30 -7 -33 -3 -3 3 9 67 27 143 18 76 33 152 34 168 1 29 -1
30 -36 27 -57 -4 -50 24 10 42 63 19 91 19 99 0z m659 3 c2 -7 -7 -56 -21
-108 -14 -52 -28 -125 -32 -163 l-6 -69 48 7 c37 6 46 5 43 -6 -6 -17 -95 -50
-127 -46 -23 3 -26 8 -29 46 -4 52 44 298 64 330 16 24 52 30 60 9z m832 4
c11 -6 9 -19 -7 -68 -26 -77 -55 -238 -47 -259 5 -13 14 -15 47 -10 31 5 40 3
37 -6 -6 -16 -83 -47 -120 -47 -47 -1 -48 40 -2 259 27 129 48 159 92 131z
m352 -1 c54 -29 45 -103 -18 -142 -20 -13 -73 -30 -117 -39 l-80 -15 2 -50 c1
-40 7 -53 29 -72 32 -28 81 -25 126 8 31 23 48 26 48 7 0 -17 -36 -50 -77 -71
-36 -18 -99 -21 -137 -6 -92 35 -82 206 17 313 60 64 155 95 207 67z m198 -6
c6 -11 5 -32 -3 -58 -7 -22 -15 -59 -19 -81 -7 -38 -4 -35 39 38 48 81 89 117
136 117 14 0 30 -5 35 -10 7 -7 27 -7 62 2 74 17 81 8 58 -84 -10 -40 -20 -82
-23 -93 -2 -11 11 7 29 40 47 86 107 145 145 145 41 0 59 -23 47 -58 -9 -24
-14 -27 -52 -24 -39 3 -47 0 -78 -33 -40 -43 -77 -112 -110 -205 -18 -51 -28
-66 -49 -73 -14 -5 -29 -6 -33 -3 -3 4 11 79 31 167 21 88 35 164 32 170 -9
14 -31 11 -56 -10 -16 -13 -33 -17 -59 -14 -32 5 -40 1 -74 -37 -39 -43 -93
-150 -116 -227 -11 -34 -18 -43 -42 -48 -16 -4 -31 -5 -34 -3 -2 3 10 65 28
139 17 74 32 150 32 169 1 34 0 35 -31 32 -53 -5 -42 25 15 42 62 19 79 19 90
0z m772 -4 c26 -26 25 -58 -5 -191 -32 -140 -23 -167 50 -139 23 9 26 8 23 -7
-4 -21 -73 -46 -105 -38 -31 8 -53 33 -53 62 0 25 0 25 -41 -11 -65 -59 -123
-72 -159 -36 -31 31 -26 82 11 125 32 36 130 75 190 75 25 0 29 5 35 38 11 53
7 75 -12 89 -47 35 -120 -3 -112 -58 3 -21 0 -30 -12 -34 -47 -15 -66 32 -33
82 38 57 181 85 223 43z m1160 -10 c0 -16 -31 -40 -51 -40 -31 0 -21 42 11 51
27 6 40 3 40 -11z m274 -21 c31 -24 33 -44 7 -58 -14 -8 -26 -5 -52 15 -19 14
-34 29 -33 34 1 6 2 15 3 20 2 17 47 11 75 -11z m113 -1 c-3 -8 -6 -5 -6 6 -1
11 2 17 5 13 3 -3 4 -12 1 -19z m-477 -48 c0 -11 -12 -26 -30 -35 -37 -19 -54
-19 -70 0 -10 12 -9 20 4 39 26 41 96 38 96 -4z m293 -20 c32 -33 45 -40 66
-35 38 8 97 -42 87 -73 -5 -13 -15 -22 -28 -22 -26 0 -88 46 -88 66 0 17 -14
18 -41 3 -15 -8 -27 -6 -53 11 -54 33 -62 47 -41 70 27 30 53 24 98 -20z
m-174 19 c36 -13 38 -22 11 -49 -20 -20 -71 -27 -104 -14 -23 9 -20 40 6 58
27 19 44 20 87 5z m351 -14 c1 -5 -1 -18 -4 -28 -4 -17 -6 -17 -35 -2 -32 16
-41 40 -18 48 17 6 56 -6 57 -18z m369 -12 c74 -25 82 -37 29 -44 -125 -18
-272 -139 -340 -279 -45 -94 -57 -130 -104 -326 -11 -47 -22 -71 -32 -71 -28
0 8 169 56 262 16 32 26 68 27 100 1 28 7 60 13 72 7 12 12 35 12 52 0 23 12
43 45 78 25 25 45 48 45 50 0 11 -24 -1 -54 -27 -21 -19 -37 -27 -41 -20 -3 6
-10 8 -13 6 -11 -6 -10 78 0 85 5 3 10 16 11 28 1 13 9 27 19 32 56 30 240 31
327 2z m-974 7 c3 -6 -6 -15 -20 -20 -34 -13 -35 -13 -35 4 0 22 43 35 55 16z
m12 -54 c2 -2 1 -16 -3 -31 -9 -35 -64 -61 -95 -44 -16 8 -20 17 -15 37 4 15
7 32 8 38 1 10 95 10 105 0z m-7447 -17 c0 -32 -61 -390 -71 -416 -7 -19 -16
-23 -50 -23 -35 0 -41 3 -36 18 2 9 25 87 50 172 26 85 53 181 62 213 16 57
45 80 45 36z m7565 0 c55 -26 57 -29 39 -54 -18 -24 -71 -24 -108 0 -32 21
-33 39 -4 59 27 19 20 20 73 -5z m184 -13 c18 -13 38 -32 46 -42 12 -17 14
-17 39 0 30 19 32 18 89 -33 36 -33 35 -58 -3 -66 -32 -7 -76 17 -105 57 l-14
22 -28 -30 -27 -29 -48 44 c-52 47 -58 66 -30 87 25 19 44 17 81 -10z m-469
-25 c0 -10 -30 -24 -37 -17 -3 3 -2 9 2 15 8 13 35 15 35 2z m181 -69 c28 -25
31 -32 22 -57 -12 -37 -30 -38 -79 -6 -49 34 -56 65 -17 79 40 15 39 15 74
-16z m195 -36 c45 -40 48 -46 37 -67 -6 -13 -14 -31 -16 -39 -4 -12 -6 -11 -6
3 -1 18 -21 25 -21 7 0 -5 -8 -10 -18 -10 -22 0 -122 87 -122 105 0 17 47 44
77 45 11 0 43 -20 69 -44z m-946 18 c32 -38 -36 -106 -74 -74 -22 17 -20 42 4
68 24 26 52 28 70 6z m1318 4 c15 -15 16 -77 2 -98 -9 -13 -13 -12 -30 9 -22
26 -25 52 -10 82 12 22 21 24 38 7z m-858 -12 c-20 -19 -60 -30 -60 -17 0 13
30 30 55 31 17 0 17 -2 5 -14z m668 -39 c7 -6 25 -30 39 -54 23 -39 24 -47 13
-69 -14 -26 -30 -32 -30 -11 0 7 -7 4 -15 -7 -11 -14 -15 -16 -15 -5 -1 10 -5
9 -15 -5 -14 -19 -15 -19 -15 7 0 15 -10 37 -22 49 -49 48 -58 101 -20 111 22
5 63 -3 80 -16z m-638 -19 c0 -49 -44 -74 -99 -57 -28 8 -44 8 -57 1 -17 -10
-17 -11 6 -12 39 -1 52 -13 45 -43 -10 -38 -73 -57 -110 -33 -22 15 -31 15
-60 4 -44 -15 -63 -2 -45 32 10 19 18 22 51 17 43 -6 69 10 69 43 0 19 19 30
54 30 12 0 29 9 39 20 12 15 29 20 62 20 40 0 45 -2 45 -22z m151 -5 c33 -19
40 -33 32 -61 -7 -29 -48 -33 -85 -8 -47 32 -57 52 -33 70 26 20 51 20 86 -1z
m207 -75 c37 -36 59 -80 32 -63 -5 3 -10 1 -10 -5 0 -6 -7 -18 -15 -26 -8 -9
-15 -11 -15 -5 0 6 -4 11 -10 11 -5 0 -10 -9 -10 -20 0 -15 7 -20 28 -20 34 0
53 -13 86 -64 38 -57 34 -83 -11 -77 -7 1 -13 -3 -13 -8 0 -6 -6 -8 -14 -5 -8
3 -16 -2 -19 -13 -4 -16 -5 -15 -6 2 0 12 -19 41 -42 65 -31 33 -39 48 -34 64
13 39 7 70 -16 86 -35 24 -89 77 -89 88 0 6 14 19 31 30 41 26 71 16 127 -40z
m439 30 c32 -30 30 -72 -4 -104 -15 -14 -33 -22 -41 -19 -7 3 -17 5 -22 5 -4
0 -6 28 -5 62 2 50 6 63 21 69 27 11 25 11 51 -13z m-757 -65 c14 -9 28 -21
31 -26 4 -5 21 -1 39 8 18 9 42 14 54 11 28 -7 116 -91 116 -111 0 -18 -20
-21 -20 -2 0 6 -8 -4 -18 -23 -12 -25 -18 -30 -20 -17 -5 27 -22 20 -23 -10
l-1 -28 -14 32 c-7 17 -22 34 -33 38 -11 3 -36 24 -55 46 -31 36 -35 38 -40
21 -9 -27 -32 -34 -59 -20 -12 6 -28 14 -36 18 -8 3 -19 14 -25 24 -9 14 -6
21 13 37 29 23 59 24 91 2z m517 -34 c24 -36 25 -50 8 -90 -5 -13 2 -20 28
-28 27 -9 39 -21 51 -52 20 -49 20 -73 1 -89 -10 -9 -15 -9 -15 -1 0 6 -6 11
-13 11 -28 0 -69 58 -74 104 -5 45 -15 57 -29 35 -4 -7 -10 -4 -18 9 -6 10
-24 38 -39 61 -42 63 -25 93 46 83 19 -3 36 -17 54 -43z m-877 -18 c35 10 63
10 78 1 20 -13 -2 -58 -37 -77 -44 -22 -70 -19 -77 10 -7 29 -7 29 -45 10 -34
-18 -49 -13 -49 16 0 25 55 50 85 40 11 -4 31 -4 45 0z m1002 -10 c31 -12 63
-81 54 -116 -5 -19 -11 -25 -22 -21 -9 3 -22 6 -29 6 -17 0 -65 79 -65 107 0
34 18 41 62 24z m-1167 -42 c-4 -5 -13 -9 -22 -9 -13 0 -13 3 -3 15 13 15 35
11 25 -6z m395 -9 c45 -23 49 -38 19 -66 -26 -23 -78 -20 -125 8 -40 23 -43
41 -12 62 30 22 71 20 118 -4z m202 -44 c51 -39 62 -59 49 -84 -5 -9 -13 -26
-16 -37 -7 -20 -7 -20 -15 0 -7 19 -7 18 -20 -4 l-13 -25 -14 27 c-7 15 -18
27 -23 27 -18 0 -80 62 -80 80 0 21 37 49 66 49 12 1 41 -15 66 -33z m-487 2
c4 -3 2 -16 -5 -27 -13 -25 -12 -25 27 -6 27 13 35 13 74 0 23 -9 51 -23 60
-31 17 -15 16 -18 -9 -43 -14 -14 -30 -25 -34 -23 -5 1 -21 4 -36 6 -41 5 -80
26 -85 47 -5 17 -7 17 -35 4 -31 -16 -82 -7 -82 14 0 5 -15 11 -32 13 -25 2
-34 8 -36 25 -2 16 3 22 20 25 40 6 166 3 173 -4z m654 -58 c26 -13 82 -105
76 -122 -3 -7 -16 -15 -28 -15 -12 -1 -32 -5 -44 -8 -16 -4 -23 -1 -23 9 0 9
-9 20 -19 26 -11 5 -29 26 -41 45 -21 34 -21 37 -5 55 20 22 55 26 84 10z
m1030 -23 c-7 -15 -17 -23 -25 -20 -8 3 -14 -1 -14 -8 0 -8 -21 -27 -45 -44
-25 -16 -43 -35 -41 -41 2 -6 -1 -11 -7 -11 -47 1 -55 -6 -37 -33 7 -11 12
-12 18 -4 5 9 10 8 19 -1 9 -10 7 -14 -10 -19 -12 -3 -23 -1 -25 4 -2 6 -13 8
-25 6 -12 -1 -16 -1 -9 1 6 3 12 9 12 14 0 5 -6 9 -12 9 -20 -1 -49 -26 -40
-35 4 -4 -3 -4 -15 -1 -12 4 -30 3 -40 -3 -21 -11 -128 -40 -162 -43 -27 -3
-42 -28 -16 -28 9 0 14 3 12 8 -3 4 6 7 19 7 30 0 32 -12 2 -17 -27 -4 -37
-28 -11 -28 14 0 15 -2 4 -9 -8 -5 -21 -6 -30 -3 -11 4 -9 -3 7 -25 l22 -31
-46 -7 c-25 -3 -48 -13 -51 -21 -4 -12 -8 -12 -26 1 -24 17 -67 20 -67 6 0
-16 20 -23 34 -12 7 6 16 8 19 4 13 -13 7 -23 -15 -24 l-23 0 22 -9 c12 -5 26
-17 32 -27 11 -23 -2 -49 -19 -38 -8 5 -9 10 -2 14 7 4 7 12 3 20 -5 7 -14 10
-20 7 -6 -4 -9 -12 -5 -17 3 -6 -28 8 -70 30 -109 59 -123 54 -56 -18 22 -23
40 -47 40 -52 0 -13 -18 -11 -22 3 -3 8 -9 8 -24 -1 -15 -10 -15 -11 -1 -7 9
3 17 2 17 -3 0 -13 -118 -53 -132 -45 -6 4 -8 3 -5 -3 6 -10 -49 -43 -72 -43
-6 0 -31 -12 -57 -26 -35 -20 -48 -23 -54 -14 -6 10 -15 8 -38 -9 -17 -11 -34
-21 -38 -21 -5 0 -34 -16 -64 -37 -113 -75 -126 -83 -137 -83 -6 0 -13 -3 -15
-7 -8 -18 -177 -152 -171 -136 3 10 19 31 36 46 36 35 31 42 -16 22 -47 -20
-47 -20 -35 13 6 15 27 40 47 56 l36 29 -32 -6 c-18 -4 -62 -26 -99 -49 -36
-24 -71 -43 -78 -43 -6 0 -27 -12 -47 -27 -20 -16 -43 -28 -52 -28 -9 0 -19
-4 -22 -10 -3 -5 -15 -15 -27 -21 -16 -8 -19 -8 -13 1 4 7 -8 2 -27 -11 -43
-30 -121 -117 -159 -178 -23 -38 -39 -51 -86 -71 -32 -13 -76 -33 -98 -46 -22
-12 -67 -36 -100 -55 -101 -55 -244 -167 -375 -293 -69 -67 -147 -141 -173
-164 -26 -24 -47 -48 -47 -53 0 -13 29 1 56 27 40 41 128 27 117 -18 -5 -21
-4 -22 8 -5 31 39 129 16 144 -34 9 -28 -27 -58 -68 -59 -33 0 -87 34 -87 56
0 18 -10 17 -34 -1 -25 -19 -66 -19 -93 0 -15 10 -24 12 -28 5 -5 -8 -11 -8
-20 0 -10 8 -22 2 -49 -27 -20 -21 -36 -41 -36 -45 0 -16 31 -7 37 10 4 9 11
20 17 24 16 11 64 10 71 -2 4 -6 21 -8 38 -5 26 5 41 0 75 -25 23 -18 42 -36
42 -41 0 -5 -11 -15 -23 -24 -29 -19 -78 -5 -118 32 -18 17 -29 21 -34 13 -4
-6 -22 -10 -40 -8 -19 1 -37 -1 -41 -5 -4 -4 -19 -7 -34 -7 -14 0 -31 -5 -37
-11 -13 -13 -76 2 -111 26 -18 13 -62 82 -62 98 0 2 27 1 61 -1 54 -4 68 -1
133 31 122 61 156 98 235 260 83 171 133 242 274 389 21 22 23 35 2 18 -8 -7
-15 -8 -15 -3 0 5 23 29 52 53 28 25 56 50 62 55 139 129 495 363 731 479 347
171 571 241 1100 346 307 60 416 103 514 204 49 49 58 53 40 13z m-1906 -3
c-16 -13 -12 -14 32 -12 50 3 50 3 47 -26 -5 -48 -62 -78 -108 -57 -24 10 -24
12 -9 47 l15 36 -24 -15 c-27 -18 -36 -14 -29 14 5 19 57 40 81 31 9 -3 8 -8
-5 -18z m565 -14 c50 -39 75 -81 53 -88 -6 -2 -11 -12 -11 -23 0 -10 -4 -19
-10 -19 -5 0 -10 10 -10 23 0 20 -1 19 -15 -7 -17 -32 -14 -39 14 -41 23 -2
84 -51 102 -83 11 -19 10 -25 -7 -40 -20 -18 -56 -23 -70 -9 -4 4 -17 7 -29 7
-22 0 -75 62 -75 88 0 7 -4 12 -10 12 -5 0 -10 -7 -10 -16 0 -8 -4 -12 -10 -9
-5 3 -10 1 -10 -4 0 -6 -7 -11 -16 -11 -8 0 -12 -4 -9 -10 3 -5 0 -7 -9 -4 -8
3 -17 12 -20 20 -3 8 -12 14 -20 14 -22 0 -86 59 -86 80 0 24 21 40 64 47 32
5 39 1 91 -50 53 -54 85 -65 85 -31 0 21 -30 64 -44 64 -7 0 -27 15 -44 33
-38 39 -35 62 12 83 42 18 38 19 94 -26z m598 -15 c9 -13 18 -44 22 -67 5 -38
3 -41 -10 -30 -9 7 -23 9 -32 6 -19 -7 -39 13 -62 64 -18 41 -12 52 31 52 26
0 39 -6 51 -25z m119 -54 c-8 -17 -20 -31 -25 -31 -14 0 -13 5 12 53 15 29 23
37 26 25 2 -9 -4 -30 -13 -47z m-1390 39 c-3 -5 -12 -10 -18 -10 -7 0 -6 4 3
10 19 12 23 12 15 0z m1988 -19 c-6 -3 -14 -17 -18 -31 -11 -39 -135 -220
-149 -220 -4 0 8 22 28 48 28 39 33 51 23 61 -10 11 -8 12 8 7 27 -8 70 64 61
102 -5 20 -4 23 3 12 11 -16 12 -16 30 25 9 19 15 25 19 16 2 -7 0 -16 -5 -20z
m-1650 0 c57 -25 63 -35 41 -76 -13 -25 -21 -31 -33 -25 -9 5 -38 17 -66 27
-61 24 -72 53 -28 77 36 19 33 19 86 -3z m-319 -17 c25 -9 20 -17 -28 -43 -67
-37 -108 -10 -43 29 34 21 46 24 71 14z m857 -35 c22 -17 44 -39 49 -49 10
-19 3 -53 -9 -45 -4 2 -21 1 -37 -4 -43 -11 -123 38 -138 85 -5 17 -1 23 26
31 53 17 68 15 109 -18z m310 -4 c9 -16 19 -42 23 -57 6 -27 5 -28 -30 -28
-40 0 -55 13 -80 68 -19 42 -11 54 34 50 28 -2 40 -10 53 -33z m-1113 -39 c4
-32 -12 -54 -47 -68 -37 -14 -71 -2 -71 25 0 33 13 47 56 62 49 18 58 15 62
-19z m170 8 c58 -29 63 -41 30 -71 -19 -18 -30 -20 -64 -14 -41 8 -104 45
-104 61 0 12 52 49 71 50 8 0 38 -12 67 -26z m1077 -43 c-15 -31 -35 -41 -35
-20 0 7 10 28 22 48 27 44 38 20 13 -28z m139 37 c-8 -28 -12 -33 -20 -25 -9
8 6 47 17 47 6 0 7 -10 3 -22z m-409 -4 c20 -21 47 -85 41 -100 -3 -7 -20 -12
-38 -12 -34 0 -55 22 -80 82 -17 40 43 63 77 30z m-1153 -39 c-5 -27 -72 -70
-95 -62 -7 2 -24 -2 -39 -10 -33 -16 -38 1 -7 18 12 6 37 27 56 45 22 23 43
34 62 34 25 0 28 -3 23 -25z m1845 -3 c-15 -2 -25 -7 -22 -12 3 -4 -2 -13 -10
-20 -12 -10 -21 -10 -38 -2 l-22 11 22 0 c12 1 25 6 28 12 10 15 48 28 60 20
6 -3 -2 -7 -18 -9z m93 -3 c0 -5 -7 -9 -15 -9 -9 0 -12 6 -9 15 6 15 24 11 24
-6z m-1418 -30 c26 -17 52 -38 57 -46 12 -22 1 -65 -15 -59 -7 3 -20 -5 -29
-17 -8 -12 -15 -16 -15 -9 0 6 -7 12 -15 12 -8 0 -15 5 -15 11 0 6 -9 9 -19 6
-13 -3 -29 6 -50 28 -42 45 -40 69 7 88 20 9 39 16 41 16 2 1 26 -13 53 -30z
m1378 21 c0 -5 -2 -10 -4 -10 -3 0 -8 5 -11 10 -3 6 -1 10 4 10 6 0 11 -4 11
-10z m-146 -35 c16 -24 16 -25 -6 -21 -13 3 -25 5 -28 5 -3 1 2 6 10 11 13 9
13 11 0 20 -8 5 -10 10 -4 10 7 0 19 -11 28 -25z m-1512 -13 c38 -15 42 -29
18 -59 -18 -23 -28 -27 -63 -24 -49 3 -97 26 -97 45 0 8 13 26 30 39 31 27 41
26 112 -1z m772 18 c14 -5 30 -19 37 -31 10 -19 9 -25 -7 -36 -25 -18 -80 -17
-88 3 -8 21 -8 59 1 67 9 10 27 9 57 -3z m256 1 c0 -12 -29 -23 -41 -15 -5 3
-7 10 -4 15 8 12 45 12 45 0z m600 -1 c0 -5 -5 -10 -11 -10 -5 0 -7 5 -4 10 3
6 8 10 11 10 2 0 4 -4 4 -10z m-1810 -40 c0 -23 -7 -35 -32 -50 -40 -24 -40
-24 -68 -2 -43 34 -3 79 73 81 24 1 27 -3 27 -29z m1858 5 c-3 -3 -9 2 -12 12
-6 14 -5 15 5 6 7 -7 10 -15 7 -18z m-225 8 c-7 -2 -19 -2 -25 0 -7 3 -2 5 12
5 14 0 19 -2 13 -5z m-992 -14 c19 -10 79 -85 79 -99 0 -13 -83 -42 -89 -31
-4 5 -19 14 -34 20 -15 6 -27 17 -27 25 0 7 -7 19 -15 26 -23 19 -18 38 13 54
33 18 47 19 73 5z m1019 1 c0 -5 -8 -10 -17 -10 -15 0 -16 2 -3 10 19 12 20
12 20 0z m-1302 -64 c49 -50 63 -81 34 -81 -6 0 -16 -5 -23 -12 -6 -6 -18 -9
-25 -6 -8 3 -14 0 -14 -7 0 -13 -47 20 -91 65 -40 40 -39 72 4 84 53 15 58 13
115 -43z m1337 44 c-3 -5 -14 -10 -23 -10 -15 0 -15 2 -2 10 20 13 33 13 25 0z
m-1900 -33 c-70 -47 -152 -74 -125 -42 7 8 21 15 31 15 10 0 24 8 31 18 19 26
48 41 83 42 29 0 28 -1 -20 -33z m1829 19 c-10 -8 -21 -12 -24 -10 -5 6 21 24
34 24 6 0 1 -6 -10 -14z m101 -5 c3 -5 1 -12 -5 -16 -5 -3 -10 1 -10 9 0 18 6
21 15 7z m75 -66 c-63 -64 -87 -78 -56 -33 9 12 16 19 16 14 0 -5 7 -3 15 4
13 11 13 15 3 22 -10 8 -10 9 1 6 7 -2 26 9 42 24 15 15 31 28 35 28 5 0 -20
-29 -56 -65z m-1940 11 c0 -26 -6 -38 -27 -52 -30 -19 -68 -21 -89 -3 -8 7
-18 7 -31 0 -41 -23 -125 -61 -134 -61 -21 0 -7 22 24 36 17 9 45 22 61 31 16
8 39 16 52 16 14 0 26 7 29 17 7 21 60 49 93 50 18 0 22 -5 22 -34z m190 9
c55 -28 59 -35 30 -53 -11 -7 -20 -18 -20 -26 0 -20 -77 -9 -112 16 -35 24
-35 36 -1 65 33 29 42 29 103 -2z m770 15 c0 -11 -48 -25 -56 -17 -4 3 -3 10
1 16 8 14 55 14 55 1z m790 -43 c0 -9 -36 9 -44 22 -4 5 5 4 19 -2 14 -7 25
-16 25 -20z m150 29 c0 -11 -19 -15 -25 -6 -3 5 1 10 9 10 9 0 16 -2 16 -4z
m-210 -21 c0 -8 -5 -15 -11 -15 -7 0 -18 -8 -25 -17 -7 -10 -16 -14 -20 -10
-5 4 5 19 20 32 34 29 36 30 36 10z m-996 -38 l29 -31 -39 -18 c-52 -23 -72
-22 -95 5 -26 31 -23 54 9 71 35 19 60 12 96 -27z m-301 -44 c20 -20 37 -44
37 -52 0 -8 -3 -11 -7 -8 -3 4 -12 -2 -20 -13 -8 -11 -21 -20 -29 -20 -8 0
-14 -5 -14 -12 0 -6 -9 -2 -20 10 -12 12 -28 22 -37 22 -19 0 -83 63 -83 83 0
20 30 44 60 49 34 5 69 -13 113 -59z m1321 53 c-6 -15 -47 -46 -61 -46 -6 0
57 58 64 60 1 0 0 -6 -3 -14z m-1648 -50 c28 -13 54 -28 57 -34 4 -5 -7 -21
-24 -36 -34 -30 -72 -29 -128 5 -37 23 -38 32 -6 64 30 31 37 31 101 1z m-181
-30 c-2 -40 -48 -70 -95 -62 -21 3 -41 2 -44 -3 -3 -5 -17 -12 -31 -15 -14 -4
-34 -15 -45 -26 -13 -13 -28 -18 -43 -15 -18 5 -27 -2 -45 -32 -13 -21 -36
-47 -50 -58 -23 -17 -21 -12 13 36 46 65 145 175 145 161 0 -5 -7 -15 -16 -22
-8 -8 -20 -22 -25 -32 -15 -28 17 -23 43 7 12 14 29 25 38 25 9 0 26 13 38 29
22 30 88 54 107 40 6 -4 10 -19 10 -33z m1853 35 c10 -6 8 -10 -9 -14 -13 -4
-25 -4 -28 -2 -2 3 1 5 8 5 7 0 9 5 6 10 -8 12 5 13 23 1z m106 -12 c-10 -11
-28 -26 -39 -32 -17 -9 -18 -8 -8 5 7 8 10 18 6 21 -3 4 3 7 15 7 12 0 22 5
22 10 0 6 5 10 12 10 6 0 3 -9 -8 -21z m-264 -24 c71 -52 150 -147 150 -180 0
-15 -18 -2 -28 21 -7 14 -17 22 -22 19 -5 -3 -15 5 -22 19 -12 27 -28 35 -28
14 -1 -7 -7 -2 -15 12 -14 24 -14 22 -15 -40 l-1 -65 -13 48 c-18 66 -26 69
-27 11 -1 -41 -2 -44 -8 -19 l-6 30 -13 -30 c-7 -16 -24 -43 -38 -60 l-26 -30
25 50 c44 90 55 164 32 218 -11 25 2 21 55 -18z m-1007 -2 c17 -10 4 -24 -37
-45 -50 -24 -79 -19 -74 14 5 38 67 55 111 31z m1117 7 c0 -5 -5 -10 -11 -10
-5 0 -7 5 -4 10 3 6 8 10 11 10 2 0 4 -4 4 -10z m45 -30 c-3 -5 -12 -10 -18
-10 -7 0 -6 4 3 10 19 12 23 12 15 0z m45 0 c0 -5 -4 -10 -10 -10 -5 0 -10 5
-10 10 0 6 5 10 10 10 6 0 10 -4 10 -10z m-1527 -36 c26 -19 50 -41 53 -49 8
-19 -32 -70 -41 -54 -6 8 -9 8 -14 0 -10 -16 -69 7 -115 45 -30 25 -37 36 -31
54 16 49 84 51 148 4z m1462 -2 c-6 -7 -34 11 -29 19 3 5 11 3 19 -4 7 -6 12
-13 10 -15z m-1777 -23 c33 -11 49 -36 32 -53 -5 -5 -10 -19 -10 -29 0 -13 -5
-17 -16 -13 -8 3 -23 2 -32 -3 -25 -13 -86 18 -90 46 -2 16 6 28 30 43 38 23
44 24 86 9z m-140 -34 c2 -25 -3 -33 -29 -47 -17 -10 -46 -18 -65 -18 -41 0
-104 -24 -121 -46 -6 -9 -18 -14 -25 -12 -9 3 -4 13 15 30 15 14 27 30 27 36
0 18 51 27 61 11 6 -10 10 -5 15 20 8 37 49 63 94 58 20 -2 26 -8 28 -32z
m1687 25 c-3 -5 -12 -10 -18 -10 -7 0 -6 4 3 10 19 12 23 12 15 0z m-1085 -20
c-26 -20 -50 -26 -50 -12 0 16 25 32 50 32 l25 0 -25 -20z m-267 -32 c35 -43
61 -88 55 -92 -2 -1 -20 -12 -41 -24 l-38 -22 -39 26 c-22 15 -40 32 -40 39 0
7 -7 18 -15 25 -23 19 -19 65 8 78 46 22 74 14 110 -30z m-289 -61 c24 -19 27
-26 18 -43 -6 -10 -13 -26 -15 -34 -6 -21 -61 -24 -97 -5 -32 17 -70 20 -70 6
0 -5 14 -14 30 -21 34 -14 61 -51 41 -58 -6 -2 -11 -12 -11 -22 0 -26 -71 -35
-110 -15 -28 14 -33 14 -52 0 -21 -14 -21 -15 -3 -15 52 0 108 -65 75 -85 -6
-4 -8 -11 -5 -16 4 -5 -7 -9 -24 -9 -16 0 -32 -4 -36 -10 -6 -10 -49 5 -76 27
-14 12 -17 12 -22 -1 -6 -16 -74 -39 -88 -30 -5 3 -18 0 -29 -6 -11 -6 -20 -7
-20 -2 0 15 51 102 60 102 4 0 7 8 6 17 -1 12 11 21 34 29 37 12 54 44 24 44
-10 0 -14 3 -10 7 10 10 96 32 128 33 15 0 29 4 32 9 11 16 -37 20 -66 5 -16
-8 -34 -14 -40 -12 -16 6 20 38 42 38 10 0 25 11 33 24 19 28 77 50 110 43 12
-3 31 1 41 9 29 21 67 17 100 -9z m176 -53 c28 -26 50 -50 50 -54 0 -4 -18
-19 -41 -34 -47 -32 -66 -29 -114 19 -50 51 -53 71 -13 95 48 29 63 25 118
-26z m1600 26 c0 -5 7 -10 15 -10 25 0 75 -29 75 -44 0 -22 -47 -57 -78 -58
-35 -1 -82 26 -82 47 0 7 6 20 13 27 7 7 16 21 20 31 7 18 37 24 37 7z m-185
-30 c-8 -24 10 -27 31 -5 18 17 24 18 43 6 18 -12 5 -31 -22 -32 -17 0 -13 -4
13 -13 40 -14 48 -36 26 -67 -23 -33 -80 -34 -121 -4 -18 14 -44 25 -61 24
l-29 -1 32 -14 c39 -17 60 -49 38 -58 -8 -3 -15 -12 -15 -20 0 -28 -70 -24
-117 7 -40 26 -73 35 -73 19 0 -4 13 -13 30 -19 16 -6 33 -18 36 -27 8 -22
-26 -52 -67 -59 -30 -4 -41 0 -68 25 -34 32 -33 39 14 80 20 17 20 17 -8 18
-18 0 -26 4 -21 11 3 6 15 8 26 6 11 -3 29 0 39 6 14 8 26 9 47 1 23 -9 33 -8
50 7 29 23 28 29 -9 29 -18 0 -28 4 -24 10 3 6 17 7 31 4 19 -5 32 0 52 19 29
27 99 66 120 67 9 0 11 -7 7 -20z m528 -10 c42 -27 46 -32 35 -49 -7 -11 -23
-23 -37 -26 l-25 -6 25 -12 c13 -7 37 -36 53 -66 27 -50 30 -52 60 -47 18 3
38 0 47 -7 26 -20 59 -80 59 -107 0 -23 -4 -26 -35 -25 -19 1 -35 -2 -35 -7 0
-4 -4 -8 -10 -8 -5 0 -10 8 -10 19 0 10 -7 24 -15 31 -20 16 -46 70 -39 81 8
14 -4 11 -31 -7 -14 -9 -25 -13 -25 -9 0 4 -7 2 -15 -5 -12 -10 -15 -10 -15 2
0 8 -9 23 -20 33 -12 11 -28 34 -37 53 -17 35 -16 35 12 58 l28 22 -38 16
c-20 9 -41 16 -46 16 -14 0 -11 46 4 58 10 8 27 14 58 21 3 0 26 -12 52 -29z
m270 -17 c8 -10 19 -30 22 -45 6 -23 3 -29 -16 -37 -18 -6 -29 -4 -43 8 -24
21 -48 69 -41 81 10 16 61 11 78 -7z m-82 -67 c27 -51 19 -70 -29 -74 -24 -2
-34 5 -58 40 -16 24 -32 45 -36 46 -16 7 -7 23 23 41 29 18 34 18 54 5 13 -8
33 -34 46 -58z m-321 10 c28 -30 32 -40 24 -54 -6 -9 -21 -18 -33 -20 -27 -4
-26 -5 5 -39 15 -15 36 -48 46 -71 20 -43 20 -44 0 -65 -11 -12 -22 -29 -25
-37 -4 -12 -6 -11 -6 3 -1 9 -5 17 -11 17 -5 0 -11 -8 -11 -17 -1 -17 -2 -17
-6 0 -6 24 -23 22 -23 -4 0 -11 -5 -17 -10 -14 -6 3 -7 17 -4 31 5 19 0 32
-18 52 -14 15 -33 41 -43 59 -22 38 -11 58 36 68 16 4 29 10 29 14 0 4 -18 20
-39 37 -60 44 -60 77 -1 86 32 5 48 -3 90 -46z m-1933 -32 c18 -14 33 -30 33
-37 -1 -7 -21 -25 -46 -41 l-45 -29 -29 34 c-37 43 -37 64 -2 83 38 21 50 20
89 -10z m1755 -1 c9 -10 23 -32 31 -49 16 -30 15 -32 -12 -58 -15 -14 -30 -23
-34 -19 -4 3 -7 2 -7 -4 0 -5 11 -15 25 -21 46 -21 115 -176 70 -158 -9 3 -15
0 -15 -9 0 -21 -20 -19 -21 3 -1 16 -2 16 -6 0 -5 -21 -23 -24 -23 -5 0 7 -7
4 -15 -7 -14 -19 -15 -19 -15 5 0 14 -11 36 -25 49 -14 13 -25 29 -25 36 0 6
-6 17 -14 23 -8 7 -12 21 -9 31 6 22 -22 30 -29 9 -2 -6 -16 -11 -31 -11 -15
0 -27 -4 -27 -9 0 -5 8 -9 18 -9 23 0 82 -90 89 -137 5 -31 4 -35 -10 -30 -12
4 -17 1 -17 -11 -1 -13 -4 -11 -14 8 l-14 24 -5 -24 -4 -25 -9 25 -8 25 -6
-24 c-3 -14 -11 -26 -17 -28 -7 -3 -9 4 -6 16 4 14 -5 32 -25 55 -17 19 -36
51 -43 70 -15 40 -28 46 -36 16 -3 -12 -14 -20 -26 -20 -23 0 -77 46 -77 66 0
7 -5 14 -11 16 -22 7 9 45 40 50 42 6 83 -14 101 -48 8 -16 15 -30 16 -32 1
-1 13 2 28 7 31 12 33 31 6 56 -11 10 -20 24 -20 31 0 7 -5 14 -11 16 -21 7 8
45 38 51 41 8 74 -13 97 -60 18 -37 24 -42 46 -37 35 8 35 10 14 40 -61 86
-65 100 -31 114 35 14 63 11 79 -7z m663 -19 c18 -28 14 -54 -9 -54 -18 0 -46
38 -46 62 0 27 35 22 55 -8z m-1235 -14 c12 -7 12 -13 4 -27 -13 -22 -70 -29
-90 -12 -35 29 45 65 86 39z m1187 -51 c13 -20 23 -48 21 -61 -2 -19 -8 -22
-33 -20 -34 4 -61 25 -81 64 -19 37 -18 47 8 57 34 12 57 2 85 -40z m-1467 -9
c-24 -15 -37 -11 -16 5 11 8 22 12 25 9 3 -3 -1 -9 -9 -14z m175 1 c22 -6 53
-13 68 -16 36 -7 43 -28 20 -59 -21 -28 -63 -37 -111 -24 -30 9 -34 13 -30 39
4 26 2 28 -16 23 -43 -14 -76 -8 -76 14 0 43 44 50 145 23z m-1179 -14 l27
-23 -44 -37 -43 -37 -28 27 c-35 34 -36 58 0 77 38 21 57 20 88 -7z m988 -32
c16 -8 46 -18 68 -22 46 -7 58 -26 34 -52 -16 -18 -15 -18 26 -14 40 4 46 2
91 -41 26 -25 47 -51 47 -58 0 -8 -18 -21 -41 -31 -36 -16 -42 -16 -55 -2 -9
8 -21 15 -28 15 -19 0 -66 57 -66 81 0 18 -4 20 -27 15 -35 -9 -83 11 -83 35
0 12 -7 19 -18 19 -26 0 -54 33 -46 54 8 20 59 21 98 1z m-1267 -41 c46 -18
48 -20 34 -57 -9 -23 -12 -23 -65 -16 -30 4 -59 10 -65 13 -6 4 -22 -1 -36
-10 -14 -9 -31 -14 -40 -11 -8 4 -17 2 -20 -3 -4 -6 -11 -10 -17 -10 -6 0 -4
8 5 18 10 10 17 26 17 35 0 20 30 37 67 37 15 0 35 5 43 10 20 13 28 13 77 -6z
m777 -14 c-10 -16 -20 -28 -22 -26 -4 5 28 56 35 56 2 0 -4 -13 -13 -30z m350
14 c8 -3 12 -12 10 -19 -4 -8 6 -16 26 -20 39 -9 45 -23 25 -61 -8 -16 -15
-26 -15 -22 0 4 -14 3 -31 -2 -32 -9 -78 2 -91 23 -3 6 0 24 8 39 15 28 14 28
-11 22 -28 -7 -30 -2 -15 27 11 19 60 26 94 13z m534 -34 c39 -28 62 -57 62
-79 0 -5 -14 -16 -30 -25 -27 -13 -35 -13 -68 1 -46 18 -92 61 -92 84 0 26 28
49 59 49 15 0 46 -13 69 -30z m831 17 c28 -14 53 -78 49 -122 -3 -28 -6 -30
-46 -31 -26 0 -48 -6 -53 -15 -8 -10 -9 -9 -4 7 3 12 -4 41 -15 65 -20 44 -26
90 -13 102 10 11 56 8 82 -6z m-2323 -18 c19 -21 18 -21 -19 -55 l-38 -35 -24
30 c-30 34 -31 49 -7 67 26 20 66 17 88 -7z m794 11 c0 -5 -2 -10 -4 -10 -3 0
-8 5 -11 10 -3 6 -1 10 4 10 6 0 11 -4 11 -10z m35 0 c-3 -5 -11 -10 -16 -10
-6 0 -7 5 -4 10 3 6 11 10 16 10 6 0 7 -4 4 -10z m13 -40 c14 0 14 -2 3 -9 -7
-5 -11 -13 -7 -19 4 -6 -1 -11 -11 -11 -10 0 -40 -3 -66 -7 -47 -7 -49 -6 -45
17 2 19 11 25 43 30 22 3 46 4 53 3 8 -2 21 -4 30 -4z m1739 -16 c3 -9 -2 -32
-11 -51 -16 -34 -17 -35 -36 -18 -22 20 -25 37 -10 66 13 23 48 25 57 3z
m-2914 -20 c3 -3 26 -7 50 -8 41 -2 97 -27 97 -44 -2 -37 -65 -58 -118 -41
-24 8 -37 8 -45 0 -8 -8 3 -16 36 -31 37 -17 47 -26 47 -45 0 -13 -7 -28 -16
-33 -13 -7 -12 -11 10 -26 32 -20 32 -24 2 -61 l-24 -30 -21 25 c-25 31 -26
38 -3 63 16 19 16 20 -6 14 -12 -3 -41 2 -63 11 -37 14 -41 14 -56 -1 -20 -19
-21 -18 37 -37 43 -14 45 -16 45 -55 0 -36 -2 -40 -28 -43 -16 -2 -46 3 -67
12 -36 14 -38 14 -43 -4 -4 -15 -14 -20 -36 -20 -26 0 -31 4 -31 23 0 27 22
50 65 68 23 9 26 13 13 16 -23 6 -23 44 0 73 9 12 33 25 51 29 19 3 36 12 39
19 5 16 -35 16 -41 0 -2 -8 -8 -9 -13 -4 -5 5 -4 11 4 13 6 3 12 20 12 38 0
28 7 39 37 60 38 25 55 30 66 19z m2010 -28 c14 -13 37 -46 51 -74 21 -41 23
-53 13 -59 -8 -4 -19 -17 -25 -28 l-11 -20 -1 20 c0 17 -2 17 -10 5 -9 -13
-11 -13 -19 0 -9 12 -11 12 -17 -3 -9 -25 -24 -21 -24 6 0 13 -9 32 -20 42
-28 25 -54 81 -46 100 6 16 40 33 67 34 9 1 28 -10 42 -23z m-1763 -1 c11 -13
9 -20 -10 -40 -29 -31 -44 -31 -65 -2 -15 21 -14 23 6 40 26 21 52 22 69 2z
m2254 4 c39 -18 64 -126 34 -145 -18 -11 -48 -12 -54 -2 -3 5 -13 0 -23 -11
-16 -19 -17 -18 -17 17 -1 20 -7 56 -14 79 -7 24 -10 49 -6 58 6 18 45 20 80
4z m-1499 -21 c-4 -13 -11 -27 -16 -32 -10 -12 -120 -16 -114 -5 3 4 -12 7
-32 6 -44 -2 -55 14 -17 27 19 6 29 5 35 -5 6 -11 12 -9 29 9 16 17 32 22 71
22 48 0 50 -1 44 -22z m509 -21 c50 -47 52 -66 10 -85 -13 -7 -24 -18 -24 -26
0 -11 -6 -9 -24 7 -13 12 -42 37 -65 56 -46 37 -52 63 -18 79 44 21 72 14 121
-31z m-317 25 c19 -12 -5 -69 -31 -76 -56 -15 -106 -3 -106 25 0 42 22 59 75
59 27 0 56 -4 62 -8z m1634 -39 c10 -31 8 -38 -15 -74 -15 -21 -29 -39 -32
-39 -2 0 -14 9 -26 20 -12 11 -28 20 -35 20 -10 0 -8 10 7 37 11 21 20 45 20
55 0 18 24 27 52 20 9 -2 22 -20 29 -39z m-1017 17 c50 -19 113 -170 71 -170
-8 0 -15 -7 -15 -15 0 -21 -20 -19 -20 3 -1 15 -2 15 -15 -2 -14 -18 -15 -18
-15 -2 0 9 -4 14 -10 11 -18 -11 -11 -45 8 -45 41 0 110 -117 91 -153 -8 -14
-13 -16 -25 -6 -13 10 -18 6 -15 -13 0 -5 -3 -8 -9 -8 -5 0 -10 5 -10 11 0 5
-4 8 -9 5 -12 -8 -71 50 -91 89 -20 39 -15 62 16 69 20 5 24 13 24 42 0 23 -8
43 -22 58 -13 13 -31 38 -41 56 -19 36 -12 54 28 70 27 12 30 12 59 0z m-443
-48 c55 -50 62 -82 19 -82 -11 0 -23 -6 -26 -13 -7 -19 -86 21 -119 61 -30 36
-25 59 19 71 49 14 52 14 107 -37z m-1161 -24 c-57 -71 -106 -150 -175 -287
-41 -81 -56 -99 -109 -138 -74 -55 -131 -83 -171 -82 -26 0 -22 2 21 17 92 32
175 111 250 237 27 44 72 115 101 159 53 78 64 108 25 65 -23 -24 -52 -20 -52
9 0 39 60 59 78 25 8 -14 14 -11 42 20 51 58 45 43 -10 -25z m450 0 c-179 -95
-276 -164 -407 -292 -35 -33 -63 -55 -63 -49 0 28 267 242 385 308 91 51 179
95 190 95 5 0 -42 -28 -105 -62z m1691 35 c17 -14 49 -102 49 -133 0 -13 -8
-17 -35 -15 -19 0 -38 4 -41 8 -4 4 -16 -5 -26 -20 l-18 -28 6 32 c4 22 1 41
-9 56 -9 13 -19 41 -23 62 -5 31 -3 41 11 51 20 15 61 9 86 -13z m-1513 -19
c12 -4 22 -10 22 -15 0 -5 -3 -8 -7 -7 -5 1 -32 -4 -62 -10 -62 -14 -76 -8
-42 19 24 20 49 23 89 13z m191 -3 c24 -16 4 -61 -34 -77 -45 -18 -51 -18 -75
8 -24 26 -25 41 -4 62 17 17 90 22 113 7z m650 -30 c40 -42 67 -109 54 -129
-5 -10 -14 -17 -19 -17 -5 0 -14 -4 -21 -8 -6 -4 -15 -2 -19 5 -5 8 -9 6 -14
-7 -6 -18 -8 -18 -20 5 -7 14 -21 31 -30 37 -24 17 -62 93 -56 110 7 16 42 31
74 32 14 1 35 -11 51 -28z m979 -1 c30 -19 32 -23 32 -79 0 -56 -1 -60 -22
-58 -45 4 -59 21 -67 80 -5 36 -4 60 3 67 13 13 16 13 54 -10z m-1428 -49 c34
-30 35 -31 15 -46 -11 -9 -29 -23 -39 -32 -14 -11 -21 -13 -24 -5 -2 7 -12 12
-23 12 -11 0 -36 15 -56 33 -42 40 -40 61 9 81 38 16 59 8 118 -43z m-517 42
c-7 -2 -19 -2 -25 0 -7 3 -2 5 12 5 14 0 19 -2 13 -5z m1462 -7 c28 -12 36
-23 49 -67 9 -29 16 -60 16 -70 0 -21 -31 -34 -42 -17 -5 9 -8 9 -8 2 0 -7 -7
-14 -14 -17 -11 -4 -13 -1 -9 10 5 14 3 14 -19 -1 -25 -16 -25 -16 -21 8 3 13
-2 34 -10 47 -9 13 -19 40 -22 60 -6 30 -3 39 12 48 24 14 28 14 68 -3z
m-1317 -11 c2 -2 1 -17 -3 -33 -10 -50 -86 -70 -120 -32 -25 27 -7 67 32 73
26 4 84 -1 91 -8z m-165 -30 c-2 -12 -38 -21 -111 -29 -47 -5 -52 -3 -42 9 7
8 23 15 36 15 12 0 26 5 29 11 8 13 91 8 88 -6z m1858 -24 c23 -24 29 -38 29
-75 0 -49 -9 -61 -40 -51 -41 13 -80 135 -47 148 22 10 28 7 58 -22z m-1059 7
c47 -38 97 -138 68 -138 -5 0 -10 -7 -10 -15 0 -18 -20 -20 -20 -2 0 6 -5 4
-11 -7 -9 -15 -13 -16 -20 -5 -6 10 -9 11 -9 2 0 -7 -4 -13 -10 -13 -5 0 -10
6 -10 14 0 8 -13 23 -30 32 -16 10 -34 29 -40 43 -5 15 -15 34 -22 44 -11 16
-10 21 11 38 26 22 79 25 103 7z m-436 -44 l49 -45 -31 -14 c-18 -7 -35 -18
-38 -24 -13 -20 -126 54 -126 83 0 21 35 46 65 46 24 0 44 -11 81 -46z m944
26 c29 -15 70 -95 70 -135 0 -26 -3 -34 -12 -29 -7 4 -27 9 -45 11 -36 4 -68
32 -101 87 -32 53 -22 66 56 75 7 0 22 -3 32 -9z m-1318 -12 c11 -9 15 -22 11
-39 -7 -38 -68 -58 -111 -36 -20 10 -46 13 -77 9 -46 -5 -47 -4 -35 18 10 18
19 21 50 18 28 -2 41 1 49 14 16 26 87 36 113 16z m643 -18 c18 -7 35 -29 56
-73 29 -63 30 -104 3 -93 -9 3 -14 -1 -14 -12 0 -14 -2 -14 -9 -3 -5 8 -16 11
-25 8 -12 -5 -27 5 -47 28 -17 19 -34 33 -38 31 -4 -3 -8 7 -9 22 -1 14 -7 31
-12 36 -14 14 -12 32 6 50 18 18 51 20 89 6z m-432 -53 c45 -42 59 -67 37 -67
-6 0 -22 -11 -36 -25 -20 -20 -26 -22 -30 -10 -4 8 -12 15 -20 15 -19 0 -94
69 -94 86 0 16 47 43 75 44 11 0 42 -20 68 -43z m1557 25 c18 -14 24 -32 28
-75 3 -40 1 -57 -7 -57 -7 0 -9 -5 -5 -11 10 -17 -28 5 -47 28 -29 32 -40 97
-22 126 7 12 30 8 53 -11z m342 -9 c-7 -3 -32 -22 -55 -43 -117 -107 -165
-139 -103 -69 41 45 157 131 166 121 3 -2 -1 -7 -8 -9z m-2342 -12 c0 -10 -25
-21 -48 -21 -15 1 -14 3 2 15 22 17 46 20 46 6z m731 -37 c32 -28 71 -114 65
-140 -5 -19 -11 -24 -26 -19 -13 4 -20 2 -20 -7 -1 -8 -5 -7 -15 5 -13 18 -14
17 -17 -5 -3 -22 -4 -21 -23 10 -11 18 -30 35 -42 38 -13 4 -23 13 -23 21 0 8
-8 28 -17 43 -15 27 -15 30 1 55 16 24 21 26 59 20 23 -4 49 -14 58 -21z
m1154 1 c38 -37 34 -146 -3 -126 -10 5 -21 8 -27 8 -25 -4 -58 116 -38 136 14
14 45 6 68 -18z m-1791 5 c23 -8 24 -12 15 -39 -13 -37 -63 -55 -109 -39 -33
11 -36 19 -19 49 18 34 67 47 113 29z m-639 -14 c27 -12 41 -12 64 -3 39 14
46 6 26 -32 -18 -35 -22 -37 -46 -16 -15 15 -17 14 -23 -11 -4 -15 -2 -32 3
-37 8 -8 4 -18 -11 -34 -38 -40 -73 -22 -44 22 16 25 16 25 -12 25 -15 0 -33
5 -39 11 -14 14 -33 3 -33 -17 0 -8 -15 -21 -32 -29 l-33 -14 35 -1 c19 0 40
-4 47 -8 16 -10 10 -62 -9 -73 -31 -17 -96 -27 -107 -16 -19 19 -12 63 12 81
15 12 18 18 10 22 -22 10 -15 63 12 89 23 24 40 29 78 26 9 -1 20 5 23 13 8
20 34 20 79 2z m1778 2 c20 -16 57 -101 57 -132 0 -29 -10 -39 -26 -25 -8 7
-14 7 -19 -1 -3 -6 -11 -7 -17 -4 -6 4 -14 0 -19 -7 -6 -10 -9 -10 -9 -2 0 7
-13 27 -29 45 -34 39 -51 115 -30 129 21 13 73 11 92 -3z m491 -10 c35 -15 58
-94 38 -126 -13 -20 -68 4 -80 36 -14 38 -22 88 -15 96 9 9 29 7 57 -6z
m-1770 -7 c13 -21 -7 -41 -40 -41 -35 0 -44 16 -22 38 14 14 54 16 62 3z
m2206 1 c0 -12 -50 -62 -61 -62 -6 0 2 15 18 34 27 34 43 44 43 28z m-1901
-17 c23 -12 41 -33 41 -49 0 -2 -10 -14 -22 -27 -19 -20 -29 -23 -60 -18 -42
7 -88 34 -88 52 0 7 9 23 20 35 24 26 68 29 109 7z m-401 -27 c-3 -7 -13 -15
-24 -17 -16 -3 -17 -1 -5 13 16 19 34 21 29 4z m719 -24 c33 -35 73 -103 73
-124 0 -5 -7 -10 -15 -10 -8 0 -15 -8 -15 -17 0 -15 -2 -16 -10 -3 -9 13 -11
13 -19 0 -8 -12 -17 -9 -53 16 -24 17 -50 45 -59 62 -9 18 -22 38 -28 46 -14
16 -1 50 21 59 38 15 72 6 105 -29z m998 19 c22 -22 35 -57 35 -98 0 -41 -11
-49 -54 -41 -25 5 -35 14 -44 39 -13 36 -16 100 -5 110 12 13 51 7 68 -10z
m-515 -8 c50 -26 90 -128 64 -162 -11 -14 -15 -15 -22 -5 -7 11 -11 10 -16 -4
-6 -16 -8 -16 -17 -4 -8 13 -10 13 -19 0 -8 -13 -10 -12 -10 4 0 11 -10 31
-23 45 -27 30 -51 96 -42 112 6 8 36 25 53 28 2 1 16 -6 32 -14z m-1087 -39
c-2 -33 -19 -48 -45 -42 -10 2 -20 1 -23 -4 -3 -4 6 -11 20 -14 14 -4 34 -15
45 -26 24 -24 28 -65 6 -57 -9 4 -17 -1 -20 -11 -9 -26 -78 -17 -111 14 -21
19 -30 22 -45 14 -26 -14 -53 -13 -75 3 -15 12 -16 19 -7 45 9 26 8 32 -6 35
-17 5 19 3 116 -8 55 -6 69 5 31 26 l-21 11 23 24 c19 21 31 24 69 22 43 -3
45 -4 43 -32z m151 -15 l26 -27 -23 -32 c-12 -17 -28 -30 -35 -27 -8 3 -24 5
-37 5 -13 0 -36 11 -52 24 -25 21 -26 26 -15 50 22 50 92 53 136 7z m285 15
c34 -18 71 -107 71 -173 0 -39 -2 -44 -15 -33 -12 10 -15 9 -15 -6 -1 -16 -5
-14 -26 11 -22 26 -25 27 -19 8 5 -18 3 -22 -9 -17 -9 3 -16 10 -16 15 0 5
-13 27 -29 49 -33 45 -49 123 -30 146 15 18 52 18 88 0z m1626 -19 c-16 -25
-43 -42 -52 -33 -3 3 10 18 29 34 38 35 47 34 23 -1z m-2210 13 c3 -5 0 -10
-7 -10 -7 0 -24 -3 -38 -6 -24 -5 -24 -5 -6 10 23 18 42 20 51 6z m1586 -19
c30 -30 33 -48 23 -113 -6 -35 -36 -58 -50 -37 -3 5 -10 7 -15 4 -5 -4 -9 -1
-9 4 0 6 -6 11 -12 11 -9 0 -14 22 -16 69 -3 58 0 71 15 80 27 15 32 14 64
-18z m-482 -7 c24 -17 48 -65 61 -121 9 -36 -7 -57 -34 -47 -9 4 -16 1 -16 -6
0 -10 -3 -10 -15 0 -10 9 -15 9 -15 1 0 -6 -4 -11 -10 -11 -5 0 -10 7 -10 15
0 9 -11 27 -25 41 -14 14 -25 34 -25 45 0 10 -5 28 -12 39 -10 15 -9 23 6 39
23 25 63 27 95 5z m909 -10 c25 -17 31 -79 10 -87 -36 -13 -73 37 -58 77 11
30 18 32 48 10z m-1572 -49 c14 -14 36 -50 50 -80 21 -46 23 -57 12 -74 -16
-27 -37 -34 -54 -20 -11 9 -14 8 -14 -5 0 -22 -17 -20 -25 4 -3 10 -19 30 -36
44 -16 14 -29 33 -29 43 0 10 -7 28 -14 39 -18 25 -11 61 13 67 42 12 73 6 97
-18z m1674 2 c0 -8 -11 -24 -25 -37 -30 -28 -35 -7 -7 28 19 25 32 28 32 9z
m-1155 -21 c13 -13 31 -47 39 -77 20 -65 20 -69 1 -69 -8 0 -15 -5 -15 -11 0
-8 -5 -8 -15 1 -12 10 -15 9 -16 -6 0 -11 -3 -14 -6 -6 -2 6 -10 12 -16 12
-37 0 -96 125 -76 161 15 28 74 25 104 -5z m-1107 7 c-10 -2 -28 -2 -40 0 -13
2 -5 4 17 4 22 1 32 -1 23 -4z m2024 -5 c21 -16 34 -83 19 -93 -21 -12 -53 7
-67 40 -23 55 6 85 48 53z m-481 -15 c43 -26 62 -102 33 -134 -12 -14 -21 -15
-48 -7 -27 8 -36 18 -45 48 -13 46 -14 52 -1 84 11 31 22 32 61 9z m339 -13
c27 -27 27 -86 1 -95 -26 -8 -47 2 -60 31 -12 28 -15 67 -4 77 13 13 43 7 63
-13z m-942 -43 c35 -28 71 -154 52 -186 -8 -14 -9 -14 -10 4 -1 19 -1 19 -14
3 -17 -22 -26 -23 -26 -2 0 14 -3 14 -15 4 -12 -10 -15 -10 -15 1 0 10 -3 10
-12 1 -17 -17 -28 -15 -21 4 5 13 -12 66 -38 116 -13 26 -11 36 10 57 20 20
63 19 89 -2z m473 -11 c26 -24 46 -96 34 -117 -8 -12 -51 -12 -75 1 -31 17
-42 47 -34 95 5 37 10 45 28 45 12 0 33 -11 47 -24z m-985 0 c31 -22 79 -135
67 -155 -6 -9 -18 -15 -27 -13 -9 2 -16 -2 -16 -9 0 -9 -3 -9 -14 0 -11 10
-15 8 -19 -6 -3 -15 -5 -14 -14 7 -6 14 -23 38 -37 53 -14 15 -26 37 -26 47 0
10 -4 22 -10 25 -16 10 -12 43 8 54 25 15 64 13 88 -3z m1734 -4 c0 -12 -68
-48 -75 -40 -3 3 9 15 27 27 36 22 48 26 48 13z m514 -54 c53 -36 125 -120
153 -178 26 -52 27 -63 28 -205 0 -213 -25 -297 -132 -442 -50 -69 -75 -94
-54 -55 6 9 24 63 40 118 26 85 30 113 25 165 -5 59 -4 63 10 45 16 -19 16
-19 16 2 0 29 17 28 26 0 7 -22 7 -22 14 -3 11 31 -7 197 -24 230 -9 17 -16
42 -16 56 0 56 -73 136 -206 227 -10 7 4 1 31 -14 28 -15 64 -37 82 -50 17
-13 35 -24 38 -24 17 0 -41 62 -85 90 -63 41 -65 51 -2 15 59 -34 125 -97 160
-152 31 -49 47 -56 31 -16 -29 76 -110 161 -206 215 -29 17 -53 32 -53 34 0 7
92 -36 124 -58z m-913 27 c12 -8 31 -83 24 -95 -3 -6 -26 -10 -51 -10 -28 0
-43 4 -39 10 4 6 1 26 -5 46 -16 48 -8 62 30 58 17 -2 36 -6 41 -9z m-991 -35
c25 -18 50 -84 50 -134 0 -27 -22 -40 -39 -23 -8 8 -11 8 -11 -2 0 -11 -3 -11
-15 -1 -10 9 -15 9 -15 1 0 -6 -4 -11 -10 -11 -5 0 -10 7 -10 16 0 8 -11 31
-25 51 -13 20 -22 40 -19 44 3 5 0 18 -6 30 -10 17 -8 24 7 39 21 21 54 17 93
-10z m-468 -30 c9 -11 26 -46 38 -76 18 -49 19 -57 5 -70 -8 -9 -19 -12 -25
-9 -5 3 -10 2 -10 -3 0 -5 -11 -9 -25 -9 -14 0 -25 5 -25 11 0 7 -13 25 -28
42 -15 16 -34 49 -42 73 -13 40 -13 44 6 58 25 19 84 10 106 -17z m971 -8 c12
-11 17 -30 17 -69 0 -57 -1 -58 -48 -42 -38 13 -66 66 -56 106 4 15 12 31 18
35 11 7 41 -6 69 -30z m777 28 c0 -11 -53 -40 -75 -40 -27 0 -16 17 23 33 46
19 52 20 52 7z m-412 -76 c-13 -12 -88 -17 -88 -5 0 10 14 15 33 12 5 -1 5 4
1 10 -5 9 -2 10 9 6 12 -4 14 -2 10 11 -4 13 0 12 18 -5 12 -12 20 -25 17 -29z
m-533 1 c20 -19 25 -34 25 -73 0 -60 -18 -72 -60 -40 -35 25 -49 61 -42 106 3
26 9 32 29 32 13 0 35 -11 48 -25z m-964 -6 c22 -22 69 -115 69 -136 0 -7 -6
-13 -14 -13 -8 0 -16 -6 -19 -12 -3 -10 -7 -10 -20 0 -13 11 -17 10 -25 -4 -9
-16 -10 -15 -17 5 -3 12 -17 33 -29 46 -12 13 -29 43 -36 66 -13 38 -12 42 5
55 27 20 62 17 86 -7z m-266 -23 c44 -24 52 -42 30 -70 -13 -17 -19 -18 -52
-8 -21 6 -51 24 -67 39 -19 17 -31 23 -34 15 -5 -15 -38 -16 -47 -2 -11 18 5
49 28 52 41 7 102 -4 142 -26z m745 -8 c23 -39 44 -97 37 -104 -3 -3 -21 -7
-40 -9 -39 -3 -71 23 -101 83 -22 43 -8 62 45 62 34 0 42 -5 59 -32z m1500 7
c168 -30 372 -118 449 -195 72 -72 120 -192 121 -304 0 -50 -34 -229 -37 -196
-33 281 -164 474 -408 597 -163 82 -277 107 -459 101 -75 -2 -134 -3 -132 -1
2 2 39 8 82 13 95 10 280 3 384 -15z m-7245 -23 c-3 -3 -11 0 -18 7 -9 10 -8
11 6 5 10 -3 15 -9 12 -12z m6752 12 c-3 -3 -12 -4 -19 -1 -8 3 -5 6 6 6 11 1
17 -2 13 -5z m-2180 -26 c-3 -8 -6 -5 -6 6 -1 11 2 17 5 13 3 -3 4 -12 1 -19z
m978 6 c16 -6 46 -57 59 -101 7 -21 4 -23 -23 -20 -36 4 -54 18 -80 63 l-20
34 22 15 c25 17 21 17 42 9z m535 -29 c28 -45 20 -71 -23 -78 -44 -6 -54 0
-59 35 -12 76 44 105 82 43z m1699 -36 c46 -46 91 -116 91 -139 0 -18 -29 -10
-41 11 -6 12 -29 41 -51 65 -42 45 -42 61 -1 22 13 -12 26 -18 30 -15 4 4 -21
34 -55 68 -34 33 -53 55 -42 49 10 -6 42 -33 69 -61z m-2605 -1 c26 -53 32
-77 19 -79 -22 -2 -45 -8 -50 -13 -16 -15 -90 114 -78 134 4 6 24 10 45 10 36
0 40 -3 64 -52z m-5122 20 c-9 -9 -15 -9 -24 1 -9 10 -9 12 -1 7 6 -3 15 -1
18 5 4 5 10 8 13 4 3 -3 0 -11 -6 -17z m4578 13 c0 -6 -4 -13 -10 -16 -5 -3
-10 1 -10 9 0 9 5 16 10 16 6 0 10 -4 10 -9z m2091 -13 c-25 -11 -51 -27 -59
-34 -8 -8 -26 -21 -40 -28 -35 -19 -125 -113 -118 -124 3 -5 -14 -8 -37 -8
-33 1 -68 -12 -157 -57 -177 -90 -296 -175 -441 -313 -113 -108 -233 -204
-255 -204 -3 0 21 20 53 44 33 24 118 99 189 167 127 122 244 210 376 283 113
62 102 78 -15 21 -162 -77 -273 -156 -430 -304 -196 -184 -322 -257 -488 -280
-78 -11 -124 -5 -106 13 7 7 30 16 52 19 22 4 54 9 70 12 27 6 26 4 -10 -14
l-40 -21 48 5 c64 6 181 56 272 115 40 27 130 103 200 169 121 116 235 206
302 237 36 18 73 54 54 54 -16 0 -113 -48 -171 -85 -79 -50 -162 -117 -265
-215 -99 -96 -181 -158 -262 -199 -24 -12 -43 -18 -43 -13 0 5 12 15 28 23 88
45 160 101 266 209 65 67 148 144 184 171 36 27 61 49 56 49 -32 0 -135 -80
-260 -201 -123 -120 -157 -146 -219 -175 -41 -19 -84 -34 -97 -34 -15 1 -5 7
27 19 67 24 95 39 95 53 0 7 -4 7 -12 1 -31 -24 -129 -45 -223 -49 l-100 -3
62 12 c34 7 65 15 69 20 4 4 -38 7 -94 7 -61 0 -102 4 -102 10 0 6 17 10 38
11 22 1 -6 9 -73 21 -119 21 -171 45 -75 34 92 -11 106 6 19 21 -75 12 -135
30 -128 37 2 2 30 -1 62 -6 39 -7 62 -7 69 0 6 6 -6 12 -37 16 -67 10 -145 35
-145 46 0 6 3 9 8 8 4 -1 21 1 38 4 22 5 42 21 67 57 20 27 60 68 90 90 50 38
212 121 236 121 6 0 11 5 11 10 0 13 1 14 -82 -16 -113 -40 -177 -81 -256
-162 -40 -41 -74 -73 -76 -71 -6 6 104 121 149 156 95 72 228 131 362 159 62
13 103 15 198 8 192 -12 242 -12 390 2 149 14 287 39 436 79 154 40 148 39
124 20 -19 -17 -18 -17 20 -11 22 4 67 13 100 21 33 7 78 13 100 13 l40 0 -44
-20z m-1810 -11 c38 -26 40 -33 18 -65 -14 -20 -19 -21 -50 -10 -69 23 -96 57
-67 86 19 19 62 14 99 -11z m1876 -3 c-3 -3 -12 -4 -19 -1 -8 3 -5 6 6 6 11 1
17 -2 13 -5z m-881 -29 c19 -30 18 -33 -22 -40 -42 -8 -57 5 -45 38 13 35 45
35 67 2z m-1176 -20 c13 -14 19 -25 13 -25 -6 0 -18 11 -27 25 -9 14 -15 25
-13 25 2 0 14 -11 27 -25z m301 15 c22 -12 59 -80 59 -110 0 -13 -10 -24 -27
-31 -23 -9 -30 -6 -50 18 -25 29 -53 84 -53 103 0 6 10 15 23 20 29 11 26 11
48 0z m1793 -2 c-3 -4 -12 -8 -20 -8 -8 0 -13 4 -10 8 3 5 12 9 20 9 8 0 13
-4 10 -9z m-1419 -9 c9 -13 6 -16 -25 -23 -29 -7 -56 7 -46 23 9 14 63 14 71
0z m-575 -59 c22 -11 53 -20 70 -20 23 0 35 -7 50 -32 32 -51 35 -77 14 -93
-11 -8 -25 -15 -32 -15 -18 0 -59 48 -74 87 l-12 33 -22 -21 c-21 -20 -23 -20
-48 -4 -29 20 -33 37 -11 55 8 7 15 18 14 24 -1 6 0 18 1 26 2 11 3 11 7 -3 2
-9 22 -26 43 -37z m-170 19 c0 -5 -4 -9 -10 -9 -5 0 -10 7 -10 16 0 8 5 12 10
9 6 -3 10 -10 10 -16z m2220 11 c0 -5 -13 -10 -30 -10 -16 0 -30 5 -30 10 0 6
14 10 30 10 17 0 30 -4 30 -10z m-15 -41 c16 -7 13 -8 -15 -7 -19 1 -44 -3
-55 -9 -32 -16 -75 -24 -75 -14 0 6 16 13 35 17 19 3 35 10 35 15 0 11 49 10
75 -2z m-235 -19 c0 -5 -5 -10 -11 -10 -5 0 -7 5 -4 10 3 6 8 10 11 10 2 0 4
-4 4 -10z m-43 -16 c-3 -3 -12 -4 -19 -1 -8 3 -5 6 6 6 11 1 17 -2 13 -5z
m258 -18 c-16 -7 -46 -16 -65 -20 -51 -10 -24 10 30 22 61 13 71 13 35 -2z
m-2167 -83 c-20 -43 -23 -63 -23 -179 0 -120 -1 -130 -17 -126 -10 2 -18 8
-18 13 0 12 -42 11 -60 -2 -12 -8 -9 -9 13 -5 15 4 27 2 27 -4 0 -5 -12 -13
-27 -16 -16 -4 -33 -10 -38 -15 -6 -4 -30 -12 -53 -17 l-42 -10 0 57 c0 69 8
98 26 105 12 5 12 1 -1 -24 -24 -47 -20 -53 27 -46 40 7 138 68 138 87 0 14
-23 11 -50 -8 l-24 -17 21 30 c12 17 29 37 38 44 17 14 21 45 4 34 -6 -3 -4 7
4 22 8 16 17 41 20 55 7 28 46 83 54 75 2 -2 -6 -26 -19 -53z m1702 4 c-156
-86 -289 -183 -433 -315 -118 -108 -195 -167 -106 -81 165 160 231 218 310
271 86 58 296 177 314 178 6 0 -33 -24 -85 -53z m310 38 c-19 -7 -42 -13 -50
-13 -8 0 1 6 20 13 19 7 42 13 50 13 8 0 -1 -6 -20 -13z m-1869 -35 c22 -12
49 -60 49 -88 0 -10 -11 -25 -25 -32 -29 -16 -45 -6 -81 52 -28 45 -28 42 -8
62 18 19 38 20 65 6z m1569 -44 c0 -2 -17 -15 -37 -27 -67 -41 -165 -120 -298
-238 -143 -127 -191 -166 -238 -195 -41 -25 -28 -11 52 54 34 29 100 87 145
129 135 125 212 186 315 248 56 34 61 36 61 29z m-100 -121 c-7 -9 -32 -29
-54 -46 -36 -27 -36 -26 9 15 50 47 68 59 45 31z m-100 -78 c0 -2 -12 -14 -27
-28 l-28 -24 24 28 c23 25 31 32 31 24z m-1092 -184 c-10 -2 -28 -2 -40 0 -13
2 -5 4 17 4 22 1 32 -1 23 -4z m-19 -34 c46 -6 122 -9 170 -7 48 3 77 2 66 -3
-54 -21 -328 -1 -353 27 -4 3 2 4 13 1 11 -3 58 -11 104 -18z m70 -55 c8 -7
-84 -2 -114 6 -18 5 -2 6 40 3 39 -3 72 -7 74 -9z m234 -1 c-7 -2 -19 -2 -25
0 -7 3 -2 5 12 5 14 0 19 -2 13 -5z"/>
<path d="M11852 5660 c0 -14 2 -19 5 -12 2 6 2 18 0 25 -3 6 -5 1 -5 -13z"/>
<path d="M11807 5641 c-4 -19 -5 -36 -2 -39 10 -11 16 7 13 40 l-3 33 -8 -34z"/>
<path d="M11808 5543 c5 -21 7 -23 10 -9 2 10 0 22 -6 28 -6 6 -7 0 -4 -19z"/>
<path d="M3720 10552 c0 -35 78 -72 153 -72 43 0 58 4 73 22 19 21 19 21 -1
14 -66 -26 -158 -14 -202 27 -13 11 -23 16 -23 9z"/>
<path d="M4179 10355 c47 -19 93 -35 102 -35 20 0 30 21 19 39 -5 10 -8 9 -13
-2 -4 -12 -17 -10 -77 9 -108 36 -127 28 -31 -11z"/>
<path d="M3751 10374 c-2 -29 -21 -43 -72 -53 l-44 -9 51 -1 c59 -1 78 13 71
56 -3 20 -4 22 -6 7z"/>
<path d="M3456 10330 c15 -15 211 -70 250 -70 48 0 82 19 93 51 13 36 3 37
-25 2 -19 -24 -29 -28 -71 -27 -27 1 -92 14 -145 28 -107 29 -117 31 -102 16z"/>
<path d="M3930 10152 c0 -18 48 -52 120 -86 41 -19 89 -44 105 -55 17 -12 38
-21 47 -21 25 0 58 48 57 84 l-1 31 -19 -42 c-11 -24 -24 -43 -30 -43 -17 0
-237 110 -249 125 -14 16 -30 20 -30 7z"/>
<path d="M4212 10139 c-1 -8 -8 -24 -16 -34 -13 -18 -17 -18 -51 -6 -54 19
-55 5 -1 -21 42 -20 48 -21 62 -6 10 10 14 27 11 49 -2 19 -5 27 -5 18z"/>
<path d="M3517 10086 c-27 -27 -32 -28 -90 -24 l-62 5 40 -13 c75 -24 132 -15
141 22 10 38 1 41 -29 10z"/>
<path d="M3206 10081 c26 -25 204 -84 266 -89 61 -4 68 -3 92 21 14 14 26 36
26 49 0 21 -2 20 -20 -9 -11 -18 -31 -35 -46 -39 -38 -10 -141 11 -228 46 -75
30 -109 38 -90 21z"/>
<path d="M3371 9837 c-24 -28 -27 -29 -85 -23 -34 3 -74 8 -91 11 -50 10 -5
-13 58 -29 66 -17 103 -10 130 26 28 37 17 51 -12 15z"/>
<path d="M3025 9825 c73 -34 258 -95 287 -95 38 0 92 30 108 59 14 28 4 26
-32 -4 -42 -35 -87 -32 -235 15 -125 40 -186 52 -128 25z"/>
<path d="M3816 9821 c5 -4 36 -19 69 -32 66 -25 106 -49 147 -87 14 -13 34
-22 44 -20 24 4 53 63 54 107 0 43 -12 32 -25 -21 -13 -54 -39 -71 -60 -40
-20 27 -58 47 -149 78 -74 25 -96 30 -80 15z"/>
<path d="M3961 9817 c14 -7 40 -25 59 -40 40 -34 55 -31 57 14 0 19 -1 24 -4
12 -6 -29 -14 -29 -59 2 -20 14 -46 25 -58 24 -19 -1 -19 -2 5 -12z"/>
<path d="M3741 9572 c8 -21 115 -85 143 -85 33 0 56 25 56 62 0 25 -1 25 -16
-6 -20 -39 -53 -44 -99 -12 -47 32 -88 52 -84 41z"/>
<path d="M3610 9561 c0 -5 15 -12 34 -15 18 -4 58 -24 87 -45 131 -94 201
-105 234 -40 17 32 20 83 5 74 -5 -3 -10 -15 -10 -26 0 -11 -11 -31 -25 -45
-31 -31 -43 -28 -150 35 -102 61 -175 87 -175 62z"/>
<path d="M2960 9550 c76 -67 162 -88 201 -49 27 27 18 35 -15 14 -35 -23 -78
-14 -147 30 -67 43 -84 45 -39 5z"/>
<path d="M2860 9547 c25 -12 74 -42 110 -65 101 -66 161 -75 209 -31 30 28 26
44 -5 20 -50 -39 -115 -25 -224 49 -34 23 -77 43 -98 46 l-37 5 45 -24z"/>
<path d="M3740 9234 c-17 -38 -67 -74 -102 -74 -14 0 -65 19 -112 43 -84 42
-113 48 -58 11 96 -66 173 -87 227 -62 30 14 68 71 63 95 -3 14 -7 10 -18 -13z"/>
<path d="M3528 9230 c30 -25 96 -43 125 -34 26 7 57 33 57 46 0 5 -10 2 -22
-6 -28 -20 -98 -20 -146 -1 l-37 15 23 -20z"/>
<path d="M2690 9266 c29 -27 218 -116 247 -116 31 0 68 30 61 50 -2 7 -13 3
-27 -9 -13 -12 -30 -21 -37 -21 -7 0 -64 25 -126 55 -115 56 -144 66 -118 41z"/>
<path d="M2800 9265 c0 -10 101 -55 124 -55 28 0 56 24 56 48 0 13 -4 12 -20
-6 -25 -27 -36 -27 -102 -2 -59 22 -58 22 -58 15z"/>
<path d="M3675 975 c-16 -8 -27 -14 -23 -15 3 0 14 -3 24 -7 12 -5 15 -3 9 6
-5 10 -2 11 12 7 14 -4 20 -2 20 9 0 18 -3 18 -42 0z"/>
<path d="M3700 941 c0 -6 4 -12 8 -15 5 -3 9 1 9 9 0 8 -4 15 -9 15 -4 0 -8
-4 -8 -9z"/>
<path d="M3780 930 c8 -5 20 -10 25 -10 6 0 3 5 -5 10 -8 5 -19 10 -25 10 -5
0 -3 -5 5 -10z"/>
<path d="M3853 907 c0 -7 11 -13 24 -13 27 -2 27 -1 -3 14 -15 8 -21 8 -21 -1z"/>
<path d="M3930 856 c7 -7 13 -7 20 0 6 6 3 10 -10 10 -13 0 -16 -4 -10 -10z"/>
<path d="M3467 8986 c-23 -17 -41 -21 -95 -19 -52 1 -62 -1 -47 -9 10 -6 45
-12 77 -12 46 -1 62 3 79 21 30 30 20 45 -14 19z"/>
<path d="M3186 8961 c5 -5 53 -23 107 -41 74 -24 109 -31 138 -26 55 9 85 25
98 52 13 30 4 31 -25 3 -48 -45 -129 -44 -244 1 -53 21 -91 27 -74 11z"/>
<path d="M2540 9021 c0 -5 13 -11 29 -14 15 -3 59 -27 97 -53 87 -60 137 -68
173 -30 28 29 22 34 -14 10 -30 -20 -70 -12 -116 22 -73 55 -169 92 -169 65z"/>
<path d="M2660 9017 c0 -3 21 -19 47 -36 51 -34 89 -39 119 -16 18 14 16 15
-18 9 -28 -4 -46 -1 -70 14 -35 21 -78 37 -78 29z"/>
<path d="M2980 8733 c1 -5 26 -23 58 -42 70 -41 151 -52 200 -27 47 24 39 38
-10 20 -54 -19 -99 -13 -171 26 -57 30 -77 36 -77 23z"/>
<path d="M3080 8725 c0 -14 74 -36 101 -30 37 8 38 22 2 21 -16 0 -45 3 -65 7
-21 4 -38 5 -38 2z"/>
<path d="M2495 8600 c-34 -36 -48 -38 -63 -7 -11 22 -11 22 -11 -4 -1 -30 22
-54 43 -46 17 7 71 76 64 82 -2 3 -17 -9 -33 -25z"/>
<path d="M2511 8550 c-28 -38 -55 -70 -61 -70 -5 0 -20 19 -32 43 -16 30 -23
37 -26 24 -2 -9 5 -32 15 -50 15 -24 26 -32 48 -32 25 0 35 9 66 60 33 53 52
95 44 95 -1 0 -26 -31 -54 -70z"/>
<path d="M2840 8420 c-58 -30 -170 -62 -201 -58 -19 3 -29 0 -29 -8 0 -20 35
-26 81 -14 55 15 189 79 189 91 0 5 -1 9 -2 8 -2 -1 -19 -9 -38 -19z"/>
<path d="M2728 8424 c-3 -3 -24 -5 -47 -6 -39 0 -52 -10 -32 -23 15 -8 88 6
108 21 17 13 17 13 -3 14 -11 0 -23 -3 -26 -6z"/>
<path d="M7911 6227 c-76 -92 -185 -649 -157 -800 9 -48 38 -50 59 -4 58 123
151 570 150 722 0 82 -22 117 -52 82z"/>
<path d="M2852 6993 c-58 -82 -105 -225 -172 -518 l-48 -210 24 -22 c33 -30
113 -32 153 -4 96 68 153 352 123 611 -9 79 -38 170 -54 170 -4 0 -15 -12 -26
-27z"/>
<path d="M6041 6212 c-76 -107 -179 -673 -145 -799 7 -27 35 -30 50 -5 35 56
113 372 139 567 31 230 15 319 -44 237z"/>
<path d="M8797 6222 c-66 -73 -157 -485 -157 -712 0 -166 35 -163 92 6 77 228
144 674 106 712 -16 16 -22 15 -41 -6z"/>
<path d="M10245 6183 c-78 -107 -165 -424 -165 -603 0 -106 26 -123 82 -55 20
24 33 70 67 240 23 116 53 257 66 315 14 58 25 115 25 128 0 39 -36 27 -75
-25z"/>
<path d="M4247 6223 c-61 -69 -142 -430 -153 -683 -6 -134 1 -164 33 -144 69
42 213 769 163 829 -16 19 -23 19 -43 -2z"/>
<path d="M5595 3814 c-48 -24 -82 -62 -106 -118 -26 -59 -30 -143 -8 -157 20
-13 22 -12 68 21 47 34 90 91 139 183 31 57 32 62 16 74 -24 18 -73 16 -109
-3z"/>
<path d="M3205 4051 l-30 -6 -52 -245 c-28 -135 -53 -254 -55 -265 -3 -19 2
-20 77 -19 95 0 141 20 199 84 65 72 102 190 94 299 -5 71 -27 108 -79 132
-40 20 -111 29 -154 20z"/>
<path d="M3720 3823 c-26 -10 -61 -47 -81 -85 l-19 -38 32 0 c63 1 138 48 138
89 0 14 -29 41 -43 40 -7 0 -19 -3 -27 -6z"/>
<path d="M4944 3646 c-55 -24 -83 -88 -50 -115 11 -10 21 -9 44 3 35 18 102
91 102 111 0 19 -53 19 -96 1z"/>
<path d="M6009 3807 c-19 -12 -44 -42 -57 -65 l-23 -42 33 0 c63 1 138 48 138
89 0 14 -29 41 -44 41 -7 0 -28 -10 -47 -23z"/>
<path d="M8240 3812 c-30 -14 -79 -80 -80 -104 0 -12 42 -10 81 3 70 24 104
85 60 109 -24 13 -20 13 -61 -8z"/>
<path d="M9165 3646 c-57 -25 -88 -82 -60 -110 13 -13 21 -14 38 -5 50 26 79
53 97 90 l20 39 -32 0 c-18 -1 -46 -7 -63 -14z"/>
<path d="M10800 2890 l-25 -8 28 -1 c15 -1 27 4 27 9 0 6 -1 10 -2 9 -2 -1
-14 -5 -28 -9z"/>
<path d="M10728 2873 c7 -3 16 -2 19 1 4 3 -2 6 -13 5 -11 0 -14 -3 -6 -6z"/>
<path d="M10590 2776 c0 -2 8 -10 18 -17 15 -13 16 -12 3 4 -13 16 -21 21 -21
13z"/>
<path d="M10280 2759 c-14 -4 -54 -15 -90 -24 -343 -89 -664 -241 -797 -378
-64 -66 -57 -66 29 0 31 24 60 43 64 43 3 0 -6 -10 -22 -22 -58 -43 -157 -145
-195 -200 -42 -62 -36 -80 9 -25 110 133 233 233 365 296 106 50 167 77 194
85 25 8 52 36 34 36 -16 0 -197 -68 -243 -91 -21 -11 -38 -17 -38 -14 0 10
197 100 305 140 55 21 171 59 258 85 88 26 163 52 169 58 13 13 -11 20 -42 11z"/>
<path d="M10647 2738 c18 -20 28 -24 17 -7 -3 6 -1 15 6 19 8 5 4 8 -13 7 -24
-2 -24 -3 -10 -19z"/>
<path d="M10685 2710 c3 -5 10 -10 16 -10 5 0 9 5 9 10 0 6 -7 10 -16 10 -8 0
-12 -4 -9 -10z"/>
<path d="M10571 2684 c10 -13 10 -17 -2 -25 -12 -7 -11 -9 3 -9 9 0 20 5 23
10 8 12 -12 40 -27 40 -6 0 -5 -7 3 -16z"/>
<path d="M10510 2630 c0 -5 5 -10 11 -10 5 0 7 5 4 10 -3 6 -8 10 -11 10 -2 0
-4 -4 -4 -10z"/>
<path d="M10410 2570 c-8 -5 -10 -10 -5 -10 6 0 17 5 25 10 8 5 11 10 5 10 -5
0 -17 -5 -25 -10z"/>
<path d="M8591 2216 c-23 -12 -20 -13 32 -14 32 0 57 4 57 9 0 5 -6 9 -12 9
-7 0 -22 2 -33 5 -11 3 -31 -1 -44 -9z"/>
<path d="M10494 2325 c-19 -14 -18 -14 4 -15 12 0 25 -1 29 -2 4 -2 9 5 11 15
4 21 -17 22 -44 2z"/>
<path d="M11377 1053 c-9 -14 45 -133 60 -133 21 0 6 67 -24 108 -25 34 -29
36 -36 25z"/>
<path d="M8090 534 c0 -8 5 -12 10 -9 6 3 10 10 10 16 0 5 -4 9 -10 9 -5 0
-10 -7 -10 -16z"/>
<path d="M8120 521 c0 -5 5 -13 10 -16 6 -3 10 -2 10 4 0 5 -4 13 -10 16 -5 3
-10 2 -10 -4z"/>
<path d="M7960 463 c0 -24 15 -23 55 4 25 17 12 17 -15 1 -17 -11 -22 -10 -30
2 -8 12 -10 11 -10 -7z"/>
<path d="M8830 10956 c0 -3 9 -10 20 -16 11 -6 20 -8 20 -6 0 3 -9 10 -20 16
-11 6 -20 8 -20 6z"/>
<path d="M8946 10884 c17 -14 17 -15 1 -10 -10 3 -15 2 -12 -3 3 -5 0 -11 -7
-14 -15 -5 12 0 45 9 15 4 18 3 9 -4 -11 -7 -11 -10 3 -15 11 -5 14 -3 9 5 -5
8 -2 9 9 5 32 -12 17 3 -23 23 -47 24 -61 26 -34 4z"/>
<path d="M622 6100 c0 -14 2 -19 5 -12 2 6 2 18 0 25 -3 6 -5 1 -5 -13z"/>
<path d="M622 6035 c0 -16 2 -22 5 -12 2 9 2 23 0 30 -3 6 -5 -1 -5 -18z"/>
<path d="M620 5935 c0 -15 4 -24 10 -20 6 3 10 12 10 20 0 8 -4 17 -10 20 -6
4 -10 -5 -10 -20z"/>
<path d="M11116 2445 c4 -8 10 -12 15 -9 11 6 2 24 -11 24 -5 0 -7 -7 -4 -15z"/>
</g>
</svg>
